<svg xmlns="http://www.w3.org/2000/svg" enable-background="new 0 0 64 64" viewBox="0 0 64 64"><path fill="#d7e3f9" d="M3,57c0,2.209,1.791,4,4,4h36c2.209,0,4-1.791,4-4V33H3V57z"/><path fill="#ed69ab" d="M43,23H7c-2.209,0-4,1.791-4,4v6h44v-6C47,24.791,45.209,23,43,23z"/><rect width="6" height="6" x="7" y="39" fill="#618bf2"/><rect width="6" height="6" x="17" y="39" fill="#618bf2"/><rect width="6" height="6" x="27" y="39" fill="#618bf2"/><rect width="6" height="6" x="37" y="39" fill="#618bf2"/><rect width="6" height="6" x="7" y="49" fill="#618bf2"/><rect width="6" height="6" x="17" y="49" fill="#618bf2"/><rect width="6" height="6" x="27" y="49" fill="#618bf2"/><rect width="6" height="6" x="37" y="49" fill="#618bf2"/><path fill="#3162a8" d="M11 28L11 28c-1.105 0-2-.895-2-2v-6c0-1.105.895-2 2-2h0c1.105 0 2 .895 2 2v6C13 27.105 12.105 28 11 28zM20 28L20 28c-1.105 0-2-.895-2-2v-6c0-1.105.895-2 2-2h0c1.105 0 2 .895 2 2v6C22 27.105 21.105 28 20 28zM29 28L29 28c-1.105 0-2-.895-2-2v-6c0-1.105.895-2 2-2h0c1.105 0 2 .895 2 2v6C31 27.105 30.105 28 29 28z"/><polygon fill="#3162a8" points="37 20 31 41 49 27"/><path fill="#4577d8" d="M61,16c0,3.75-1.59,7.13-4.13,9.49C54.55,27.67,51.43,29,48,29s-6.55-1.33-8.87-3.51C36.59,23.13,35,19.75,35,16c0-7.18,5.82-13,13-13S61,8.82,61,16z"/><circle cx="48" cy="13" r="5" fill="#ffbb4d"/><path fill="#ffbb4d" d="M56.87,25.49C54.55,27.67,51.43,29,48,29s-6.55-1.33-8.87-3.51C39.85,21.24,43.55,18,48,18c2.48,0,4.74,1.01,6.36,2.64C55.65,21.92,56.55,23.61,56.87,25.49z"/><path fill="#362d44" d="M48,2c-7.72,0-14,6.28-14,14c0,2.149,0.501,4.178,1.37,6H32v-2c0-1.654-1.346-3-3-3s-3,1.346-3,3v2h-3v-2c0-1.654-1.346-3-3-3s-3,1.346-3,3v2h-3v-2c0-1.654-1.346-3-3-3s-3,1.346-3,3v2H7c-2.757,0-5,2.243-5,5v30c0,2.757,2.243,5,5,5h36c2.757,0,5-2.243,5-5V30c7.72,0,14-6.28,14-14S55.72,2,48,2z M44.202,29.462l-11.4,8.869l3.992-13.975C38.615,26.792,41.201,28.614,44.202,29.462z M46,30.597V32h-1.803L46,30.597z M30.44,41.829C30.61,41.943,30.805,42,31,42c0.217,0,0.434-0.071,0.614-0.211l0.386-0.3V44h-4v-4h2.245l-0.207,0.726C29.92,41.142,30.082,41.586,30.44,41.829z M28,20c0-0.551,0.448-1,1-1s1,0.449,1,1v6c0,0.551-0.448,1-1,1s-1-0.449-1-1V20z M19,20c0-0.551,0.448-1,1-1s1,0.449,1,1v6c0,0.551-0.448,1-1,1s-1-0.449-1-1V20z M10,20c0-0.551,0.448-1,1-1s1,0.449,1,1v6c0,0.551-0.448,1-1,1s-1-0.449-1-1V20z M7,24h1v2c0,1.654,1.346,3,3,3s3-1.346,3-3v-2h3v2c0,1.654,1.346,3,3,3s3-1.346,3-3v-2h3v2c0,1.654,1.346,3,3,3s3-1.346,3-3v-2h2.815l-2.285,8H4v-5C4,25.346,5.346,24,7,24z M43,60H7c-1.654,0-3-1.346-3-3V34h27.959l-1.142,4H27c-0.553,0-1,0.448-1,1v6c0,0.552,0.447,1,1,1h6c0.553,0,1-0.448,1-1v-5.067L41.626,34H46v23C46,58.654,44.654,60,43,60z M40.23,25.128C41.085,21.548,44.267,19,48,19c2.142,0,4.148,0.833,5.656,2.35c1.034,1.026,1.753,2.361,2.098,3.792C53.661,26.921,50.956,28,48,28C45.037,28,42.326,26.915,40.23,25.128z M44,13c0-2.206,1.794-4,4-4s4,1.794,4,4s-1.794,4-4,4S44,15.206,44,13z M57.357,23.494c-0.497-1.335-1.268-2.547-2.288-3.559c-0.974-0.98-2.119-1.726-3.366-2.224C53.099,16.612,54,14.911,54,13c0-3.309-2.691-6-6-6s-6,2.691-6,6c0,1.911,0.901,3.612,2.297,4.712c-2.593,1.029-4.665,3.11-5.658,5.777C36.992,21.434,36,18.832,36,16c0-6.617,5.383-12,12-12s12,5.383,12,12C60,18.834,59.007,21.438,57.357,23.494z"/><path fill="#362d44" d="M13 38H7c-.553 0-1 .448-1 1v6c0 .552.447 1 1 1h6c.553 0 1-.448 1-1v-6C14 38.448 13.553 38 13 38zM12 44H8v-4h4V44zM23 38h-6c-.553 0-1 .448-1 1v6c0 .552.447 1 1 1h6c.553 0 1-.448 1-1v-6C24 38.448 23.553 38 23 38zM22 44h-4v-4h4V44zM43 38h-6c-.553 0-1 .448-1 1v6c0 .552.447 1 1 1h6c.553 0 1-.448 1-1v-6C44 38.448 43.553 38 43 38zM42 44h-4v-4h4V44zM13 48H7c-.553 0-1 .448-1 1v6c0 .552.447 1 1 1h6c.553 0 1-.448 1-1v-6C14 48.448 13.553 48 13 48zM12 54H8v-4h4V54zM23 48h-6c-.553 0-1 .448-1 1v6c0 .552.447 1 1 1h6c.553 0 1-.448 1-1v-6C24 48.448 23.553 48 23 48zM22 54h-4v-4h4V54zM33 48h-6c-.553 0-1 .448-1 1v6c0 .552.447 1 1 1h6c.553 0 1-.448 1-1v-6C34 48.448 33.553 48 33 48zM32 54h-4v-4h4V54zM43 48h-6c-.553 0-1 .448-1 1v6c0 .552.447 1 1 1h6c.553 0 1-.448 1-1v-6C44 48.448 43.553 48 43 48zM42 54h-4v-4h4V54z"/></svg>