<svg xmlns="http://www.w3.org/2000/svg" enable-background="new 0 0 53 53" viewBox="0 0 53 53"><path d="M44.2068024,13.9867287v31.9500732c0,2.4499512-1.9799805,4.4299316-4.4299927,4.4299316H9.9068146
				c-2.4500117,0-4.4299922-1.9799805-4.4299922-4.4299316V6.7866549c0-2.4399414,1.9799805-4.4199219,4.4299922-4.4199219
				h22.6799927c0.7000122,0,1.3699951,0.2800293,1.8599854,0.7700195l8.9899902,8.9899902
				C43.9268341,12.6167336,44.2068024,13.2866554,44.2068024,13.9867287z"/><path d="M39.7763672,50.8671875H9.9072266c-2.71875,0-4.9306641-2.2119141-4.9306641-4.9306641V6.7871094
				c0-2.7128906,2.2119141-4.9199219,4.9306641-4.9199219h22.6796875c0.8251953,0,1.6318359,0.3339844,2.2138672,0.9160156
				l8.9892578,8.9902344c0.5830078,0.5830078,0.9169922,1.3896484,0.9169922,2.2128906v31.9501953
				C44.7070313,48.6552734,42.4951172,50.8671875,39.7763672,50.8671875z M9.9072266,2.8671875
				c-2.1669922,0-3.9306641,1.7587891-3.9306641,3.9199219v39.1494141c0,2.1669922,1.7636719,3.9306641,3.9306641,3.9306641
				h29.8691406c2.1669922,0,3.9306641-1.7636719,3.9306641-3.9306641V13.9863281
				c0-0.5605469-0.2275391-1.109375-0.6240234-1.5058594L34.09375,3.4902344
				c-0.3964844-0.3955078-0.9453125-0.6230469-1.5068359-0.6230469H9.9072266z"/><path fill="#fff" d="M41.2055168,12.8967628v33.0400391c0,2.4499512-1.9800415,4.4299316-4.4200439,4.4299316H6.9055309
				c-2.4500122,0-4.4300537-1.9799805-4.4300537-4.4299316V6.7866549c0-2.4399414,1.9800415-4.4199219,4.4300537-4.4199219
				h23.7699585L41.2055168,12.8967628z"/><path d="M36.7851563,50.8671875H6.9052734c-2.7177734,0-4.9296875-2.2119141-4.9296875-4.9306641V6.7871094
				c0-2.7128906,2.2119141-4.9199219,4.9296875-4.9199219h23.7705078c0.1328125,0,0.2597656,0.0527344,0.3535156,0.1464844
				l10.5292969,10.5292969c0.09375,0.09375,0.1464844,0.2207031,0.1464844,0.3535156v33.0400391
				C41.7050781,48.6552734,39.4980469,50.8671875,36.7851563,50.8671875z M6.9052734,2.8671875
				c-2.1669922,0-3.9296875,1.7587891-3.9296875,3.9199219v39.1494141c0,2.1669922,1.7626953,3.9306641,3.9296875,3.9306641
				h29.8798828c2.1611328,0,3.9199219-1.7636719,3.9199219-3.9306641V13.1035156L30.46875,2.8671875H6.9052734z"/><path fill="#fff" d="M24.841814,46.3672218H6.4854259c-0.0053935,0-0.0097656-0.0048752-0.0097656-0.010891"/><path d="M24.8417969,46.8671875H6.4853516c-0.2763672,0-0.5097656-0.234375-0.5097656-0.5107422
				c0-0.3115234,0.3066406-0.5527344,0.6035156-0.4892578h18.2626953c0.2763672,0,0.5,0.2236328,0.5,0.5
				S25.1181641,46.8671875,24.8417969,46.8671875z"/><path fill="#fff" d="M8.565506,41.3700943h-2.08008c-0.0053935,0-0.0097656-0.0048752-0.0097656-0.010891"/><path d="M8.5654297 41.8701172H6.4853516c-.2763672 0-.5097656-.234375-.5097656-.5107422 0-.3115234.3066406-.5527344.6035156-.4892578h1.9863281c.2763672 0 .5.2236328.5.5S8.8417969 41.8701172 8.5654297 41.8701172zM12.2285156 41.8701172h-1.1650391c-.2763672 0-.5-.2236328-.5-.5s.2236328-.5.5-.5h1.1650391c.2763433 0 .5.2236328.5.5S12.504859 41.8701172 12.2285156 41.8701172z"/><path d="M33.6357422,41.8701172H12.2285156c-0.2763672,0-0.5-0.2236328-0.5-0.5s0.2236328-0.5,0.5-0.5h21.4072266
				c0.2763672,0,0.5,0.2236328,0.5,0.5S33.9121094,41.8701172,33.6357422,41.8701172z"/><path fill="#fff" d="M37.2051506,41.3581123c0,0.0065918-0.0048332,0.011982-0.0107422,0.011982h-1.7741776"/><path d="M37.1943359,41.8701172h-1.7744141c-0.2763672,0-0.5-0.2236328-0.5-0.5s0.2236328-0.5,0.5-0.5h1.6767578
				c0.2978516-0.0664063,0.6083984,0.1748047,0.6083984,0.4882813
				C37.7050781,41.6347656,37.4707031,41.8701172,37.1943359,41.8701172z"/><path fill="#fff" d="M17.9821758,36.3729668H6.4854259c-0.0053935,0-0.0097656-0.0048752-0.0097656-0.010891"/><path d="M17.9824219 36.8730469H6.4853516c-.2763672 0-.5097656-.234375-.5097656-.5107422 0-.3115234.3066406-.5537109.6035156-.4892578h11.4033203c.2763672 0 .5.2236328.5.5S18.2587891 36.8730469 17.9824219 36.8730469zM28.2324219 36.8730469h-7.75c-.2763672 0-.5-.2236328-.5-.5s.2236328-.5.5-.5h7.75c.2763672 0 .5.2236328.5.5S28.5087891 36.8730469 28.2324219 36.8730469z"/><path fill="#fff" d="M37.2051506,36.3609886c0,0.006588-0.0048332,0.0119781-0.0107422,0.0119781h-7.1289043"/><path d="M37.1943359,36.8730469h-7.1289063c-0.2763672,0-0.5-0.2236328-0.5-0.5s0.2236328-0.5,0.5-0.5h7.03125
				c0.2978516-0.0644531,0.6083984,0.1748047,0.6083984,0.4882813
				C37.7050781,36.6376953,37.4707031,36.8730469,37.1943359,36.8730469z"/><path fill="#fff" d="M14.398839,31.3758411h-7.913413c-0.0053935,0-0.0097656-0.0048771-0.0097656-0.0108929"/><path d="M14.3984375,31.8759766H6.4853516c-0.2763672,0-0.5097656-0.234375-0.5097656-0.5107422
				c0-0.3115234,0.3066406-0.5537109,0.6035156-0.4892578h7.8193359c0.2763672,0,0.5,0.2236328,0.5,0.5
				S14.6748047,31.8759766,14.3984375,31.8759766z"/><path fill="#fff" d="M37.2051506,31.3638592c0,0.0065899-0.0048332,0.011982-0.0107422,0.011982H17.9821739"/><path d="M37.1943359,31.8759766H17.9824219c-0.2763672,0-0.5-0.2236328-0.5-0.5s0.2236328-0.5,0.5-0.5h19.1142578
				c0.2978516-0.0664063,0.6083984,0.1748047,0.6083984,0.4882813
				C37.7050781,31.640625,37.4707031,31.8759766,37.1943359,31.8759766z"/><path fill="#ddd" d="M41.2055168,12.8967628H33.195507c-1.3900127,0-2.5200176-1.1300049-2.5200176-2.5200195V2.3667331
				L41.2055168,12.8967628z"/><path d="M41.2050781,13.3964844h-8.0097656c-1.6650391,0-3.0195313-1.3544922-3.0195313-3.0195313V2.3671875
				c0-0.2021484,0.1220703-0.3847656,0.3085938-0.4619141c0.1865234-0.0761719,0.4023438-0.0351563,0.5449219,0.1083984
				l10.5292969,10.5292969c0.1425781,0.1425781,0.1855469,0.3583984,0.1083984,0.5449219
				S41.4072266,13.3964844,41.2050781,13.3964844z M31.1757813,3.5742188v6.8027344
				c0,1.1132813,0.90625,2.0195313,2.0195313,2.0195313h6.8027344L31.1757813,3.5742188z"/><circle cx="16.481" cy="16.373" r="10.006" fill="#283e42"/><path d="M16.4814453,26.8789063c-5.7929688,0-10.5058594-4.7128906-10.5058594-10.5058594
				S10.6884766,5.8671875,16.4814453,5.8671875s10.5058594,4.7128906,10.5058594,10.5058594
				S22.2744141,26.8789063,16.4814453,26.8789063z M16.4814453,6.8671875c-5.2412109,0-9.5058594,4.2646484-9.5058594,9.5058594
				s4.2646484,9.5058594,9.5058594,9.5058594s9.5058594-4.2646484,9.5058594-9.5058594S21.7226563,6.8671875,16.4814453,6.8671875z"/><path fill="#fff" d="M21.7770615,15.8429098l-3.542902,1.1528215l2.2025585,3.064888
					c0.1218491,0.1780262,0.0843792,0.4217243-0.0937042,0.5529556l-1.1341152,0.8154202
					c-0.1780834,0.1218491-0.4311085,0.0843792-0.5529575-0.1030865l-2.1369991-3.1773548l-2.1557074,3.1867371
					c-0.1218491,0.1780834-0.3748722,0.2249355-0.5529556,0.1030846l-1.1809683-0.8248005
					c-0.1780834-0.1312313-0.2249355-0.3749294-0.0937605-0.5529556l2.2307034-3.064888l-3.5803728-1.1622028
					c-0.206172-0.0656157-0.3186398-0.2905512-0.2436419-0.4967804l0.4498711-1.255908
					c0.0749969-0.2062283,0.2999325-0.3093147,0.4967222-0.2343168l3.5335207,1.2746716v-3.664752
					c0-0.2155542,0.1687021-0.3936377,0.3842554-0.3936377h1.3121986c0.2155533,0,0.3936367,0.1780834,0.3936367,0.3936377
					v3.6272249L21.07411,13.837141c0.1967907-0.0656157,0.4217262,0.0374708,0.4967232,0.2436991l0.4498711,1.255908
					C22.0957012,15.5429773,21.9832344,15.7679129,21.7770615,15.8429098z"/><circle cx="41.604" cy="41.712" r="8.92"/><path d="M41.6044922,51.1328125c-5.1943359,0-9.4208984-4.2255859-9.4208984-9.4199219
																				s4.2255859-9.4208984,9.4199219-9.4208984s9.4208984,4.2255859,9.4208984,9.4199219
																				S46.7988281,51.1328125,41.6044922,51.1328125z M41.6035156,33.2919922
																				c-4.6425781,0-8.4199219,3.7773438-8.4199219,8.4208984c0,4.6425781,3.7773438,8.4199219,8.4208984,8.4199219
																				c4.6425781,0,8.4199219-3.7773438,8.4199219-8.4208984
																				C50.0244141,37.0693359,46.2470703,33.2919922,41.6035156,33.2919922z"/><circle cx="39.604" cy="41.712" r="8.92" fill="#5ae4a7"/><path d="M39.6044922,51.1328125c-5.1943359,0-9.4208984-4.2255859-9.4208984-9.4199219
																				s4.2255859-9.4208984,9.4199219-9.4208984s9.4208984,4.2255859,9.4208984,9.4199219
																				S44.7988281,51.1328125,39.6044922,51.1328125z M39.6035156,33.2919922
																				c-4.6425781,0-8.4199219,3.7773438-8.4199219,8.4208984c0,4.6425781,3.7773438,8.4199219,8.4208984,8.4199219
																				c4.6425781,0,8.4199219-3.7773438,8.4199219-8.4208984
																				C48.0244141,37.0693359,44.2470703,33.2919922,39.6035156,33.2919922z"/><circle cx="39.604" cy="41.712" r="6.679" fill="#fff"/><path d="M35.2675781 42.2119141h-.5654297c-.2763672 0-.5-.2236328-.5-.5s.2236328-.5.5-.5h.5654297c.2763672 0 .5.2236328.5.5S35.5439453 42.2119141 35.2675781 42.2119141zM44.5058594 42.2119141h-.5664063c-.2763672 0-.5-.2236328-.5-.5s.2236328-.5.5-.5h.5664063c.2763672 0 .5.2236328.5.5S44.7822266 42.2119141 44.5058594 42.2119141zM37.915596 38.6299362c.3495255-.3824615.8393402-.5768356 1.4694443-.5831223l-.0000191-.6254005.4467163-.0000114.0000191.6159973c.6238327.043869 1.1026878.2280273 1.4365578.552475s.5086479.7531319.5243378 1.2860565l-.8228989.0000229c-.0219498-.2382469-.0862198-.4435806-.1928101-.6159935-.1975021-.3166122-.512558-.4827499-.9451675-.4984131l.000061 2.2853012c.7272911.2037468 1.221035.3949585 1.4812317.5736351.4232101.2946663.6348228.7304039.6348419 1.3072128.0000229.8338699-.2711258 1.4263611-.813446 1.7774811-.3009377.1943665-.7351112.3229065-1.3025169.3856201l.0000267.9122391-.4467163.0000153-.0000267-.9122429c-.9122391-.059536-1.5313797-.3824081-1.8574219-.9686165-.1786919-.3166122-.2680473-.7445183-.2680626-1.2837105l.8323021-.0000229c.0250893.4294739.0924988.7429581.2022209.9404488.1943703.3542328.554882.5532837 1.0815392.5971565l-.0000687-2.5627327c-.6771317-.1285095-1.1771469-.343235-1.500042-.6441689-.3228989-.3009377-.4843521-.7178688-.4843674-1.2507896C37.3913155 39.4418755 37.5660744 39.0123978 37.915596 38.6299362zM38.5457535 40.5907631c.2053375.1755447.4819908.2977982.8299599.3667564l-.0000572-2.2100677c-.4106674.015686-.7029877.1410866-.8769646.3762054s-.2609634.481205-.2609558.7382622C38.2377434 40.1722717 38.3404198 40.4152184 38.5457535 40.5907631zM40.9416466 43.8117523c.1065826-.1880951.1598663-.4059677.1598587-.6536217-.0000076-.3918533-.1442184-.6896591-.4326324-.8934174-.1661491-.1191216-.4451523-.2319679-.8370132-.3385391l.0000687 2.4733925C40.3679886 44.3744698 40.7378922 44.1785316 40.9416466 43.8117523z"/></svg>