<?xml version="1.0" standalone="no"?>
<!DOCTYPE svg PUBLIC "-//W3C//DTD SVG 20010904//EN"
 "http://www.w3.org/TR/2001/REC-SVG-20010904/DTD/svg10.dtd">
<svg version="1.0" xmlns="http://www.w3.org/2000/svg"
 width="64.000000pt" height="64.000000pt" viewBox="0 0 64.000000 64.000000"
 preserveAspectRatio="xMidYMid meet">

<g transform="translate(0.000000,64.000000) scale(0.100000,-0.100000)"
fill="#000000" stroke="none">
<path d="M222 608 c-13 -17 -22 -118 -10 -118 5 0 8 -17 6 -37 -3 -34 -7 -38
-57 -59 -81 -32 -95 -57 -89 -157 6 -83 27 -147 68 -195 18 -22 24 -23 162
-21 79 1 149 4 156 7 7 2 22 24 33 47 23 48 20 70 -29 215 l-29 85 -57 28
c-47 23 -56 31 -50 45 5 9 9 38 9 64 1 27 6 53 13 60 7 7 12 20 12 30 0 15 -9
18 -64 18 -39 0 -67 -5 -74 -12z m103 -84 c9 -52 -10 -70 -58 -55 -44 15 -49
28 -25 64 13 18 28 27 48 27 24 0 29 -5 35 -36z m-21 -76 c3 3 6 -7 6 -22 0
-16 4 -25 10 -21 6 3 16 3 23 -2 8 -5 2 -9 -17 -13 -16 -3 -32 -12 -34 -20 -4
-12 -2 -13 9 -3 13 10 63 18 101 14 16 -1 42 -56 33 -71 -3 -4 2 -13 10 -20 8
-7 15 -20 15 -30 0 -10 7 -31 15 -46 22 -42 20 -84 -4 -84 -20 0 -43 29 -56
69 -5 16 -4 21 4 17 6 -4 11 -3 11 2 0 5 -10 12 -21 15 -18 5 -21 11 -16 36 7
33 -7 44 -16 12 -3 -14 -13 -18 -43 -17 -36 1 -39 3 -42 34 -2 17 -7 32 -12
32 -5 0 -10 -15 -12 -32 -3 -30 -6 -33 -41 -35 -26 -2 -40 3 -44 12 -9 24 -21
17 -16 -9 3 -14 -2 -39 -11 -57 -9 -19 -12 -37 -7 -43 17 -23 30 -100 19 -113
-8 -11 -16 -7 -34 18 -27 37 -40 74 -49 142 -4 30 -2 47 4 47 7 0 7 9 -1 25
-10 22 -8 30 9 53 19 25 25 27 96 27 59 0 73 3 65 12 -7 8 -25 11 -52 8 l-41
-5 33 15 c26 12 32 21 32 45 l0 30 34 -14 c19 -8 37 -12 40 -8z m1 -200 c20
-9 26 -18 22 -35 -2 -13 0 -23 4 -23 5 0 9 11 9 24 0 13 7 26 15 30 12 4 14
-5 9 -57 -8 -83 -8 -83 -48 -97 -26 -8 -45 -8 -76 0 -39 10 -40 13 -38 48 1
20 -2 53 -6 73 -7 35 -7 36 17 32 14 -3 33 0 44 6 23 13 17 13 48 -1z m114
-80 c21 -55 22 -62 7 -70 -9 -5 -16 -16 -16 -24 0 -10 5 -12 13 -8 7 5 6 1 -3
-10 -13 -17 -15 -16 -31 20 -23 52 -23 154 0 154 3 0 17 -28 30 -62z m-229 7
c4 -35 0 -79 -6 -72 -11 11 -23 82 -18 101 5 15 8 16 14 5 5 -8 9 -23 10 -34z
m290 -94 c0 -10 -7 -24 -15 -31 -12 -10 -16 -8 -24 11 -11 29 -6 39 20 39 12
0 19 -7 19 -19z"/>
<path d="M240 423 c0 -13 5 -23 10 -23 13 0 13 11 0 30 -8 12 -10 11 -10 -7z"/>
<path d="M270 205 c0 -19 5 -35 10 -35 6 0 10 16 10 35 0 19 -4 35 -10 35 -5
0 -10 -16 -10 -35z"/>
<path d="M227 210 c3 -11 7 -20 9 -20 2 0 4 9 4 20 0 11 -4 20 -9 20 -5 0 -7
-9 -4 -20z"/>
<path d="M230 140 c0 -16 4 -30 8 -30 5 0 7 14 4 30 -2 17 -6 30 -8 30 -2 0
-4 -13 -4 -30z"/>
<path d="M321 138 c0 -28 2 -30 9 -13 12 28 12 45 0 45 -5 0 -10 -15 -9 -32z"/>
</g>
</svg>
