<svg xmlns="http://www.w3.org/2000/svg" enable-background="new 0 0 53 53" viewBox="0 0 53 53"><path d="M45.4400139,7.2099338v38.5800171c0,2.5999756-2.1099854,4.7099609-4.710022,4.7099609H10.3599987
			c-2.5999756,0-4.7099609-2.1099854-4.7099609-4.7099609V7.2099338c0-2.5999756,2.1099854-4.710022,4.7099609-4.710022h30.3699932
			C43.3300285,2.4999118,45.4400139,4.6099582,45.4400139,7.2099338z"/><path d="M40.7299805,51H10.3598633c-2.8730469,0-5.2099609-2.3369141-5.2099609-5.2099609V7.2099609
			C5.1499023,4.3369141,7.4868164,2,10.3598633,2h30.3701172c2.8730469,0,5.2099609,2.3369141,5.2099609,5.2099609v38.5800781
			C45.9399414,48.6630859,43.6030273,51,40.7299805,51z M10.3598633,3C8.0385742,3,6.1499023,4.8886719,6.1499023,7.2099609
			v38.5800781C6.1499023,48.1113281,8.0385742,50,10.3598633,50h30.3701172c2.3212891,0,4.2099609-1.8886719,4.2099609-4.2099609
			V7.2099609C44.9399414,4.8886719,43.0512695,3,40.7299805,3H10.3598633z"/><path d="M49.349987,31.4099464v4.7700195c0,0.8699951-0.6999512,1.5699463-1.5699463,1.5699463h-2.3400269v-7.9099731h2.3400269
			C48.6500359,29.8399391,49.349987,30.5399513,49.349987,31.4099464z"/><path d="M47.7797852 38.25h-2.3398438c-.2763672 0-.5-.2236328-.5-.5v-7.9101563c0-.2763672.2236328-.5.5-.5h2.3398438c1.1416016 0 2.0703125.9287109 2.0703125 2.0703125v4.7695313C49.8500977 37.3212891 48.9213867 38.25 47.7797852 38.25zM45.9399414 37.25h1.8398438c.5898438 0 1.0703125-.4804688 1.0703125-1.0703125v-4.7695313c0-.5898438-.4804688-1.0703125-1.0703125-1.0703125h-1.8398438V37.25zM49.349987 9.9099464v4.7700195c0 .8699951-.6999512 1.5699463-1.5699463 1.5699463h-2.3400269V8.3399391h2.3400269C48.6500359 8.3399391 49.349987 9.0399513 49.349987 9.9099464z"/><path d="M47.7797852 16.75h-2.3398438c-.2763672 0-.5-.2236328-.5-.5V8.3398438c0-.2763672.2236328-.5.5-.5h2.3398438c1.1416016 0 2.0703125.9287109 2.0703125 2.0703125v4.7695313C49.8500977 15.8212891 48.9213867 16.75 47.7797852 16.75zM45.9399414 15.75h1.8398438c.5898438 0 1.0703125-.4804688 1.0703125-1.0703125V9.9101563c0-.5898438-.4804688-1.0703125-1.0703125-1.0703125h-1.8398438V15.75zM49.349987 20.6599464v4.7700195c0 .8699951-.6999512 1.5699463-1.5699463 1.5699463h-2.3400269v-7.9099731h2.3400269C48.6500359 19.0899391 49.349987 19.7899513 49.349987 20.6599464z"/><path d="M47.7797852,27.5h-2.3398438c-0.2763672,0-0.5-0.2236328-0.5-0.5v-7.9101563c0-0.2763672,0.2236328-0.5,0.5-0.5h2.3398438
			c1.1416016,0,2.0703125,0.9287109,2.0703125,2.0703125v4.7695313C49.8500977,26.5712891,48.9213867,27.5,47.7797852,27.5z
			 M45.9399414,26.5h1.8398438c0.5898438,0,1.0703125-0.4804688,1.0703125-1.0703125v-4.7695313
			c0-0.5898438-0.4804688-1.0703125-1.0703125-1.0703125h-1.8398438V26.5z"/><path fill="#fff" d="M43.4400139,7.2099338v38.5800171c0,2.5999756-2.1099854,4.7099609-4.710022,4.7099609H8.3599987
			c-2.5999756,0-4.7099609-2.1099854-4.7099609-4.7099609V7.2099338c0-2.5999756,2.1099854-4.710022,4.7099609-4.710022h30.3699932
			C41.3300285,2.4999118,43.4400139,4.6099582,43.4400139,7.2099338z"/><path d="M38.7299805,51H8.3598633c-2.8730469,0-5.2099609-2.3369141-5.2099609-5.2099609V7.2099609
			C3.1499023,4.3369141,5.4868164,2,8.3598633,2h30.3701172c2.8730469,0,5.2099609,2.3369141,5.2099609,5.2099609v38.5800781
			C43.9399414,48.6630859,41.6030273,51,38.7299805,51z M8.3598633,3C6.0385742,3,4.1499023,4.8886719,4.1499023,7.2099609
			v38.5800781C4.1499023,48.1113281,6.0385742,50,8.3598633,50h30.3701172c2.3212891,0,4.2099609-1.8886719,4.2099609-4.2099609
			V7.2099609C42.9399414,4.8886719,41.0512695,3,38.7299805,3H8.3598633z"/><path fill="#283e42" d="M12.1900158,2.4999118v48H8.3599987c-2.5999756,0-4.7099609-2.1099854-4.7099609-4.7099609V7.2099338
			c0-2.5999756,2.1099854-4.710022,4.7099609-4.710022H12.1900158z"/><path d="M12.1899414,51H8.3598633c-2.8730469,0-5.2099609-2.3369141-5.2099609-5.2099609V7.2099609
			C3.1499023,4.3369141,5.4868164,2,8.3598633,2h3.8300781c0.2763672,0,0.5,0.2236328,0.5,0.5v48
			C12.6899414,50.7763672,12.4663086,51,12.1899414,51z M8.3598633,3C6.0385742,3,4.1499023,4.8886719,4.1499023,7.2099609
			v38.5800781C4.1499023,48.1113281,6.0385742,50,8.3598633,50h3.3300781V3H8.3598633z"/><path fill="#ddd" d="M47.349987,31.4099464v4.7700195c0,0.8699951-0.6999512,1.5699463-1.5699463,1.5699463h-2.3400269v-7.9099731
			h2.3400269C46.6500359,29.8399391,47.349987,30.5399513,47.349987,31.4099464z"/><path d="M45.7797852,38.25h-2.3398438c-0.2763672,0-0.5-0.2236328-0.5-0.5v-7.9101563c0-0.2763672,0.2236328-0.5,0.5-0.5
			h2.3398438c1.1416016,0,2.0703125,0.9287109,2.0703125,2.0703125v4.7695313
			C47.8500977,37.3212891,46.9213867,38.25,45.7797852,38.25z M43.9399414,37.25h1.8398438
			c0.5898438,0,1.0703125-0.4804688,1.0703125-1.0703125v-4.7695313c0-0.5898438-0.4804688-1.0703125-1.0703125-1.0703125
			h-1.8398438V37.25z"/><path fill="#283e42" d="M47.349987,9.9099464v4.7700195c0,0.8699951-0.6999512,1.5699463-1.5699463,1.5699463h-2.3400269V8.3399391
			h2.3400269C46.6500359,8.3399391,47.349987,9.0399513,47.349987,9.9099464z"/><path d="M45.7797852,16.75h-2.3398438c-0.2763672,0-0.5-0.2236328-0.5-0.5V8.3398438c0-0.2763672,0.2236328-0.5,0.5-0.5h2.3398438
			c1.1416016,0,2.0703125,0.9287109,2.0703125,2.0703125v4.7695313C47.8500977,15.8212891,46.9213867,16.75,45.7797852,16.75z
			 M43.9399414,15.75h1.8398438c0.5898438,0,1.0703125-0.4804688,1.0703125-1.0703125V9.9101563
			c0-0.5898438-0.4804688-1.0703125-1.0703125-1.0703125h-1.8398438V15.75z"/><path fill="#5ae4a7" d="M47.349987,20.6599464v4.7700195c0,0.8699951-0.6999512,1.5699463-1.5699463,1.5699463h-2.3400269v-7.9099731
			h2.3400269C46.6500359,19.0899391,47.349987,19.7899513,47.349987,20.6599464z"/><path d="M45.7797852,27.5h-2.3398438c-0.2763672,0-0.5-0.2236328-0.5-0.5v-7.9101563c0-0.2763672,0.2236328-0.5,0.5-0.5h2.3398438
			c1.1416016,0,2.0703125,0.9287109,2.0703125,2.0703125v4.7695313C47.8500977,26.5712891,46.9213867,27.5,45.7797852,27.5z
			 M43.9399414,26.5h1.8398438c0.5898438,0,1.0703125-0.4804688,1.0703125-1.0703125v-4.7695313
			c0-0.5898438-0.4804688-1.0703125-1.0703125-1.0703125h-1.8398438V26.5z"/><circle cx="27.815" cy="16.081" r="9.339" fill="#5ae4a7"/><path d="M27.8149414,25.9199219c-5.4248047,0-9.8388672-4.4140625-9.8388672-9.8388672
					c0-5.4257813,4.4140625-9.8398438,9.8388672-9.8398438c5.4257813,0,9.8398438,4.4140625,9.8398438,9.8398438
					C37.6547852,21.5058594,33.2407227,25.9199219,27.8149414,25.9199219z M27.8149414,7.2412109
					c-4.8740234,0-8.8388672,3.9658203-8.8388672,8.8398438s3.9648438,8.8388672,8.8388672,8.8388672
					s8.8398438-3.9648438,8.8398438-8.8388672S32.6889648,7.2412109,27.8149414,7.2412109z"/><path fill="#fff" d="M32.7579613,15.5858746l-3.3069324,1.0760403l2.0558605,2.860754
						c0.1137333,0.1661682,0.0787582,0.3936367-0.0874634,0.5161266l-1.0585804,0.7611103
						c-0.1662216,0.1137333-0.4023933,0.0787582-0.5161266-0.09622l-1.994669-2.9657307l-2.0121288,2.9744873
						c-0.1137333,0.1662216-0.349905,0.2099533-0.5161266,0.09622l-1.1023102-0.7698669
						c-0.1662235-0.1224899-0.2099552-0.3499584-0.0875168-0.5161266l2.0821304-2.860754l-3.3419075-1.0847969
						c-0.19244-0.0612459-0.2974167-0.2711992-0.2274132-0.4636927l0.4199066-1.1722603
						c0.0700035-0.1924934,0.2799568-0.2887135,0.4636402-0.2187109l3.2981758,1.1897745v-3.4206667
						c0-0.2011976,0.157465-0.3674192,0.3586617-0.3674192h1.224802c0.2011967,0,0.3674183,0.1662216,0.3674183,0.3674192v3.3856382
						l3.3244476-1.1635027c0.1836815-0.0612459,0.3936348,0.0349741,0.4636383,0.2274675l0.4199066,1.1722603
						C33.055378,15.3059187,32.9504013,15.515872,32.7579613,15.5858746z"/><path d="M32.7924805 47h-9.9541016c-.2763672 0-.5-.2236328-.5-.5s.2236328-.5.5-.5h9.9541016c.2763672 0 .5.2236328.5.5S33.0688477 47 32.7924805 47zM34.8256836 43.2324219H20.8041992c-.2763672 0-.5-.2236328-.5-.5s.2236328-.5.5-.5h14.0214844c.2763672 0 .5.2236328.5.5S35.1020508 43.2324219 34.8256836 43.2324219zM36.6245117 39.4648438H19.0053711c-.2763672 0-.5-.2236328-.5-.5s.2236328-.5.5-.5h17.6191406c.2763672 0 .5.2236328.5.5S36.9008789 39.4648438 36.6245117 39.4648438zM37.6899414 35.6972656h-19.75c-.2763672 0-.5-.2236328-.5-.5s.2236328-.5.5-.5h19.75c.2763672 0 .5.2236328.5.5S37.9663086 35.6972656 37.6899414 35.6972656z"/></svg>