<svg xmlns="http://www.w3.org/2000/svg" enable-background="new 0 0 53 53" viewBox="0 0 53 53"><path d="M45.3054733,9.8907309V45.348896c0,2.849041-2.3123093,5.150959-5.1510201,5.150959H11.0448265
						c-2.8490429,0-5.1612906-2.301918-5.1612906-5.150959V9.8907309c0-2.8387098,2.3122478-5.1509581,5.1612906-5.1509581
						h29.1096268C42.9931641,4.7397728,45.3054733,7.052021,45.3054733,9.8907309z"/><path d="M40.1549034,51H11.0445499c-3.1210938,0-5.6611328-2.5351563-5.6611328-5.6508789V9.890625
						c0-3.1157227,2.5400391-5.6508789,5.6611328-5.6508789h29.1103535c3.1152344,0,5.6503906,2.5351563,5.6503906,5.6508789
						v35.4584961C45.805294,48.4648438,43.2701378,51,40.1549034,51z M11.0445499,5.2397461
						c-2.5703125,0-4.6611328,2.0864258-4.6611328,4.6508789v35.4584961C6.3834171,47.9135742,8.4742374,50,11.0445499,50
						h29.1103535c2.5644531,0,4.6503906-2.0864258,4.6503906-4.6508789V9.890625
						c0-2.5644531-2.0859375-4.6508789-4.6503906-4.6508789H11.0445499z"/><path fill="#ddd" d="M42.3054733,9.8907309V45.348896c0,2.849041-2.3123093,5.150959-5.1510201,5.150959H8.0448265
						c-2.8490429,0-5.1612911-2.301918-5.1612911-5.150959V9.8907309c0-2.8387098,2.312248-5.1509581,5.1612911-5.1509581
						h29.1096268C39.9931641,4.7397728,42.3054733,7.052021,42.3054733,9.8907309z"/><path d="M37.1549034,51H8.0445499c-3.1210938,0-5.6611328-2.5351563-5.6611328-5.6508789V9.890625
						c0-3.1157227,2.5400391-5.6508789,5.6611328-5.6508789h29.1103535c3.1152344,0,5.6503906,2.5351563,5.6503906,5.6508789
						v35.4584961C42.805294,48.4648438,40.2701378,51,37.1549034,51z M8.0445499,5.2397461
						c-2.5703125,0-4.6611328,2.0864258-4.6611328,4.6508789v35.4584961C3.3834171,47.9135742,5.4742374,50,8.0445499,50h29.1103535
						c2.5644531,0,4.6503906-2.0864258,4.6503906-4.6508789V9.890625c0-2.5644531-2.0859375-4.6508789-4.6503906-4.6508789
						H8.0445499z"/><path fill="#fff" d="M7.6613541,46.8647728c-0.5845604,0-1.0594506-0.4707527-1.0594506-1.0491028V9.4239578
						c0-0.578352,0.4748902-1.0491047,1.0594506-1.0491047h29.876709c0.5690422,0,1.0491066,0.4800634,1.0491066,1.0491047V45.81567
						c0,0.5783501-0.4707527,1.0491028-1.0491066,1.0491028H7.6613541z"/><path d="M37.5377159,47.3647461H7.6617374c-0.8603516,0-1.5595703-0.6948242-1.5595703-1.5493164V9.4238281
						c0-0.8540039,0.6992188-1.5488281,1.5595703-1.5488281h29.8759785c0.8398438,0,1.5498047,0.7094727,1.5498047,1.5488281
						v36.3916016C39.0875206,46.6699219,38.3922081,47.3647461,37.5377159,47.3647461z M7.6617374,8.875
						c-0.3085938,0-0.5595703,0.2460938-0.5595703,0.5488281v36.3916016c0,0.3027344,0.2509766,0.5493164,0.5595703,0.5493164
						h29.8759785c0.3027344,0,0.5498047-0.246582,0.5498047-0.5493164V9.4238281
						c0-0.2924805-0.2568359-0.5488281-0.5498047-0.5488281H7.6617374z"/><path d="M14.6597843 12.8422852h-4.6083984c-.2763672 0-.5-.2236328-.5-.5s.2236328-.5.5-.5h4.6083984c.2763672 0 .5.2236328.5.5S14.9361515 12.8422852 14.6597843 12.8422852zM12.1812687 15.1875h-2.1298828c-.2763672 0-.5-.2236328-.5-.5s.2236328-.5.5-.5h2.1298828c.2763672 0 .5.2236328.5.5S12.4576359 15.1875 12.1812687 15.1875z"/><path fill="#283e42" d="M31.2994919,5.939795v1.5500488c0,1.1398921-0.9200439,2.0600581-2.0599976,2.0600581h-13.29004
						c-1.1399536,0-2.0599976-0.920166-2.0599976-2.0600581V5.939795c0-1.8999023,1.5400391-3.4399414,3.4400034-3.4399414
						h10.5300293C29.7594528,2.4998536,31.2994919,4.0398927,31.2994919,5.939795z"/><path d="M29.2398624,10.0498047H15.9498234c-1.4121094,0-2.5605469-1.1484375-2.5605469-2.5600586V5.9399414
						C13.3892765,3.7675781,15.1568546,2,17.3297062,2h10.5292969c2.1728516,0,3.9404297,1.7675781,3.9404297,3.9399414v1.5498047
						C31.7994328,8.9013672,30.6509953,10.0498047,29.2398624,10.0498047z M17.3297062,3
						c-1.6210938,0-2.9404297,1.3188477-2.9404297,2.9399414v1.5498047c0,0.8603516,0.7001953,1.5600586,1.5605469,1.5600586
						h13.2900391c0.8603516,0,1.5595703-0.699707,1.5595703-1.5600586V5.9399414C30.7994328,4.3188477,29.4800968,3,27.8590031,3
						H17.3297062z"/><path fill="#fff" d="M26.8844833,6.0251222c0,0.5297852-0.4200439,0.949707-0.9400024,0.949707h-6.6900024
							c-0.5300293,0-0.9500122-0.4199219-0.9500122-0.949707c0-0.5302734,0.4199829-0.9501953,0.9500122-0.9501953h6.6900024
							C26.4644394,5.0749269,26.8844833,5.4948487,26.8844833,6.0251222z"/><path d="M34.8326378 39.3271484H20.5875187c-.2763672 0-.5-.2236328-.5-.5s.2236328-.5.5-.5h14.2451191c.2763672 0 .5.2236328.5.5S35.109005 39.3271484 34.8326378 39.3271484zM18.4205265 39.3271484h-8.0644531c-.2763672 0-.5-.2236328-.5-.5s.2236328-.5.5-.5h8.0644531c.2763672 0 .5.2236328.5.5S18.6968937 39.3271484 18.4205265 39.3271484zM27.1422062 43.3549805H10.3560734c-.2763672 0-.5-.2236328-.5-.5s.2236328-.5.5-.5h16.7861328c.2763672 0 .5.2236328.5.5S27.4185734 43.3549805 27.1422062 43.3549805zM34.8326378 31.2714844H14.9205265c-.2763672 0-.5-.2236328-.5-.5s.2236328-.5.5-.5h19.9121113c.2763672 0 .5.2236328.5.5S35.109005 31.2714844 34.8326378 31.2714844zM13.0875187 31.2714844h-2.7314453c-.2763672 0-.5-.2236328-.5-.5s.2236328-.5.5-.5h2.7314453c.2763672 0 .5.2236328.5.5S13.3638859 31.2714844 13.0875187 31.2714844zM34.8326378 35.2993164h-7.9951191c-.2763672 0-.5-.2236328-.5-.5s.2236328-.5.5-.5h7.9951191c.2763672 0 .5.2236328.5.5S35.109005 35.2993164 34.8326378 35.2993164zM24.8765812 35.2993164H10.3560734c-.2763672 0-.5-.2236328-.5-.5s.2236328-.5.5-.5h14.5205078c.2763672 0 .5.2236328.5.5S25.1529484 35.2993164 24.8765812 35.2993164z"/><circle cx="23.188" cy="19.981" r="7.639" fill="#5ae4a7"/><path d="M23.1881046,28.1196289c-4.4873047,0-8.1386719-3.6508789-8.1386719-8.1386719s3.6513672-8.1386719,8.1386719-8.1386719
			s8.1386719,3.6508789,8.1386719,8.1386719S27.6754093,28.1196289,23.1881046,28.1196289z M23.1881046,12.8422852
			c-3.9365234,0-7.1386719,3.2021484-7.1386719,7.1386719s3.2021484,7.1386719,7.1386719,7.1386719
			s7.1386719-3.2021484,7.1386719-7.1386719S27.1246281,12.8422852,23.1881046,12.8422852z"/><path fill="#fff" d="M27.6837864,19.6061897l-3.0079231,0.9787464l1.8699722,2.602087
				c0.1034489,0.151144,0.0716381,0.3580456-0.0795555,0.4694614l-0.9628639,0.6922894
				c-0.1511936,0.1034508-0.3660107,0.0716381-0.4694595-0.0875187l-1.8143139-2.6975746l-1.8301945,2.7055397
				c-0.1034508,0.1511917-0.3182678,0.1909695-0.4694595,0.0875187l-1.0026417-0.7002544
				c-0.1511936-0.1114159-0.1909695-0.3183174-0.0796032-0.4694614l1.8938675-2.602087l-3.0397358-0.9867115
				c-0.1750412-0.0557079-0.270525-0.2466774-0.206852-0.4217663l0.3819389-1.0662651
				c0.063673-0.1750889,0.2546444-0.2626095,0.4217186-0.1989365l2.999958,1.0821972v-3.1113758
				c0-0.1830044,0.1432285-0.334197,0.3262329-0.334197h1.1140575c0.1830044,0,0.3341961,0.1511927,0.3341961,0.334197v3.0795135
				l3.0238552-1.0583c0.1670742-0.0557079,0.3580456,0.0318127,0.4217186,0.2069016l0.3819389,1.0662651
				C27.9543114,19.3515472,27.8588276,19.5425167,27.6837864,19.6061897z"/><path fill="#5ae4a7" d="M49.9793472,13.9562883l-9.7044868,20.9109421l-6.1781158-2.8671799l9.7044907-20.9109402
							c0.3418159-0.7365379,1.2144051-1.0559406,1.950943-0.7141228l3.5130463,1.6303568
							C50.0017624,12.3471603,50.3211632,13.2197514,49.9793472,13.9562883z"/><path d="M40.2750206,35.3671875c-0.0703125,0-0.1425781-0.0146484-0.2109375-0.0463867l-6.1787109-2.8671875
							c-0.1201172-0.0556641-0.2128906-0.1572266-0.2587891-0.2817383c-0.0449219-0.1245117-0.0400391-0.262207,0.0166016-0.3823242
							l9.7050781-20.9111328c0.4560547-0.9848633,1.6347656-1.4130859,2.6142578-0.9570313l3.5136719,1.6303711
							c0.984375,0.4570313,1.4130859,1.6303711,0.9560547,2.6147461l-9.7041016,20.9111328
							C40.6441612,35.2602539,40.4634972,35.3671875,40.2750206,35.3671875z M34.7603722,31.7568359l5.2714844,2.4462891
							l9.4941406-20.4575195l0,0c0.2246094-0.484375,0.0136719-1.0620117-0.4716797-1.2866211l-3.5126953-1.6303711
							c-0.4794922-0.2241211-1.0615234-0.0136719-1.2871094,0.4707031L34.7603722,31.7568359z"/><path fill="#283e42" d="M48.2319527,17.7215195l1.7473946-3.7652311c0.3418159-0.736537,0.0224152-1.609128-0.7141228-1.9509449
							l-3.5130463-1.6303568c-0.7365379-0.3418179-1.609127-0.0224152-1.950943,0.7141228l-1.7473946,3.7652302
							L48.2319527,17.7215195z"/><path d="M48.2320518,18.2216797c-0.0722656,0-0.1435547-0.015625-0.2109375-0.0463867L41.84338,15.3081055
							c-0.25-0.1162109-0.3583984-0.4135742-0.2421875-0.6640625l1.7470703-3.765625
							c0.4560547-0.9848633,1.6347656-1.4130859,2.6142578-0.9570313l3.5136719,1.6303711
							c0.4765625,0.2216797,0.8388672,0.6157227,1.0195313,1.109375s0.1582031,1.0283203-0.0634766,1.5053711l-1.7470703,3.765625
							c-0.0556641,0.1201172-0.15625,0.2133789-0.28125,0.2592773
							C48.3482628,18.2114258,48.289669,18.2216797,48.2320518,18.2216797z M42.71838,14.6113281l5.2705078,2.4462891
							l1.5371094-3.3120117c0.2246094-0.484375,0.0136719-1.0620117-0.4716797-1.2866211l-3.5126953-1.6303711
							c-0.4794922-0.2241211-1.0615234-0.0136719-1.2871094,0.4707031L42.71838,14.6113281z"/><path fill="#fff" d="M40.2640381,34.8454285l-3.2120667,2.742485l-1.2341843,1.0642014
							c-0.6769218,0.5825157-1.7275543,0.1053658-1.7282867-0.7916374l-0.0018387-1.6586952l-0.0123482-4.1971474
							L40.2640381,34.8454285z"/><path d="M35.1392784,39.4082031c-0.2177734,0-0.4384766-0.046875-0.6484375-0.1430664
							c-0.5556641-0.2543945-0.9003906-0.7924805-0.9013672-1.4042969l-0.0136719-5.8549805
							c0-0.1704102,0.0859375-0.3295898,0.2294922-0.421875c0.1435547-0.0927734,0.3242188-0.1044922,0.4794922-0.0341797
							l6.1884766,2.8408203c0.1542969,0.0712891,0.2626953,0.2167969,0.2861328,0.3857422s-0.0410156,0.3383789-0.1708984,0.4492188
							l-4.4443359,3.8051758C35.8550987,39.2797852,35.5006065,39.4082031,35.1392784,39.4082031z M34.577755,32.7851563
							l0.0117188,5.074707c0,0.2197266,0.1191406,0.4052734,0.3183594,0.4960938
							c0.1982422,0.0913086,0.4179688,0.0610352,0.5839844-0.0825195l3.8525391-3.300293L34.577755,32.7851563z"/><line x1="37.193" x2="45.143" y1="33.418" y2="16.288" fill="#283e42"/><path d="M37.1929893,33.9179688c-0.0703125,0-0.1425781-0.0146484-0.2109375-0.0463867
					c-0.25-0.1162109-0.3583984-0.4135742-0.2421875-0.6640625l7.9501953-17.1298828
					c0.1152344-0.2504883,0.4130859-0.3598633,0.6640625-0.2431641c0.25,0.1162109,0.3583984,0.4135742,0.2421875,0.6640625
					L37.6461143,33.628418C37.56213,33.8110352,37.3814659,33.9179688,37.1929893,33.9179688z"/><path fill="#283e42" d="M37.0519714,37.5879135l-1.2341843,1.0642014
					c-0.6769218,0.5825157-1.7275543,0.1053658-1.7282867-0.7916374l-0.0018387-1.6586952
					c0.5597458-0.1051331,1.1454964-0.0418358,1.6945572,0.2129745
					C36.3398094,36.6735268,36.7749405,37.0840073,37.0519714,37.5879135z"/><path d="M35.1392784,39.4082031c-0.2177734,0-0.4384766-0.046875-0.6484375-0.1430664
					c-0.5556641-0.2543945-0.9003906-0.7924805-0.9013672-1.4042969l-0.0019531-1.6586914
					c0-0.2407227,0.1708984-0.4477539,0.4082031-0.4916992c0.6777344-0.1259766,1.3701172-0.0405273,1.9960938,0.2504883
					c0.6464844,0.2998047,1.1650391,0.7792969,1.4990234,1.3857422c0.1132813,0.2070313,0.0673828,0.465332-0.1123047,0.6196289
					l-1.234375,1.0644531C35.8550987,39.2797852,35.5006065,39.4082031,35.1392784,39.4082031z M34.5884972,36.6533203
					l0.0009766,1.206543c0,0.2197266,0.1191406,0.4052734,0.3183594,0.4960938
					c0.1982422,0.0913086,0.4179688,0.0610352,0.5839844-0.0825195l0.8994141-0.7753906
					c-0.2167969-0.2646484-0.4951172-0.4790039-0.8203125-0.6298828
					C35.2603722,36.7236328,34.9410362,36.6572266,34.5884972,36.6533203z"/></svg>