<svg xmlns="http://www.w3.org/2000/svg" enable-background="new 0 0 64 64" viewBox="0 0 64 64"><polygon fill="#d7e3f9" points="25 12 60 12 60 62 18 62 18 19"/><polygon fill="#3162a8" points="18 19 25 19 25 12"/><polygon fill="#618bf2" points="19 7 54 7 54 12 25 12 18 19 18 57 12 57 12 14"/><polygon fill="#3162a8" points="12 14 19 14 19 7"/><polygon fill="#4577d8" points="13 2 48 2 48 7 19 7 12 14 12 52 6 52 6 9"/><polygon fill="#3162a8" points="6 9 13 9 13 2"/><rect width="14" height="16" x="41" y="20" fill="#3162a8"/><circle cx="48" cy="27" r="3" fill="#ffbb4d"/><path fill="#ffbb4d" d="M54.92,36H41.08c0.48-3.4,3.39-6,6.92-6S54.44,32.6,54.92,36z"/><polygon fill="#0acfcf" points="36 26 32 26 32 22 27 22 27 26 23 26 23 31 27 31 27 35 32 35 32 31 36 31"/><path fill="#362d44" d="M60,11h-5V7c0-0.553-0.448-1-1-1h-5V2c0-0.553-0.448-1-1-1H13c-0.265,0-0.52,0.105-0.707,0.293l-7,7C5.105,8.48,5,8.734,5,9v43c0,0.553,0.448,1,1,1h5v4c0,0.553,0.448,1,1,1h5v4c0,0.553,0.448,1,1,1h42c0.552,0,1-0.447,1-1V12C61,11.447,60.552,11,60,11z M7,51V10h6c0.552,0,1-0.447,1-1V6h-2v2H8.414l5-5H47v3H19c-0.265,0-0.52,0.105-0.707,0.293l-7,7C11.105,13.48,11,13.734,11,14v37H7z M13,56V15h6c0.552,0,1-0.447,1-1v-3h-2v2h-3.586l5-5H53v3H25c-0.265,0-0.52,0.105-0.707,0.293l-7,7C17.105,18.48,17,18.734,17,19v37H13z M59,61H19V20h6c0.552,0,1-0.447,1-1v-3h-2v2h-3.586l5-5H59V61z"/><path fill="#362d44" d="M55 19H41c-.552 0-1 .447-1 1v16c0 .553.448 1 1 1h.08 13.84H55c.552 0 1-.447 1-1V20C56 19.447 55.552 19 55 19zM54 21v10.737c-.815-.926-1.836-1.661-2.987-2.134C51.62 28.901 52 27.998 52 27c0-2.206-1.794-4-4-4s-4 1.794-4 4c0 .998.38 1.901.987 2.602-1.151.473-2.172 1.208-2.987 2.134V21H54zM46 27c0-1.103.897-2 2-2s2 .897 2 2-.897 2-2 2S46 28.103 46 27zM42.349 35c.828-2.345 3.083-4 5.651-4s4.823 1.655 5.651 4H42.349zM26 32v3c0 .553.448 1 1 1h5c.552 0 1-.447 1-1v-3h3c.552 0 1-.447 1-1v-5c0-.553-.448-1-1-1h-3v-3c0-.553-.448-1-1-1h-5c-.552 0-1 .447-1 1v3h-3c-.552 0-1 .447-1 1v5c0 .553.448 1 1 1H26zM24 27h3c.552 0 1-.447 1-1v-3h3v3c0 .553.448 1 1 1h3v3h-3c-.552 0-1 .447-1 1v3h-3v-3c0-.553-.448-1-1-1h-3V27z"/><rect width="24" height="2" x="29" y="40" fill="#362d44"/><rect width="28" height="2" x="25" y="44" fill="#362d44"/><rect width="28" height="2" x="25" y="48" fill="#362d44"/><rect width="12" height="2" x="23" y="56" fill="#362d44"/><rect width="12" height="2" x="43" y="56" fill="#362d44"/><rect width="2" height="2" x="54" y="15" fill="#362d44"/><rect width="2" height="2" x="50" y="15" fill="#362d44"/><rect width="2" height="2" x="46" y="15" fill="#362d44"/></svg>