<svg xmlns="http://www.w3.org/2000/svg" fill="none" viewBox="0 0 64 64">
    <path fill="#B2B6F4" fill-rule="evenodd"
        d="M13.333 10A3.333 3.333 0 0 0 10 13.333v13.334A3.333 3.333 0 0 0 13.333 30h13.334A3.333 3.333 0 0 0 30 26.667V13.333A3.333 3.333 0 0 0 26.667 10H13.333Zm0 32A3.333 3.333 0 0 0 10 45.333v13.334A3.333 3.333 0 0 0 13.333 62h13.334A3.333 3.333 0 0 0 30 58.667V45.333A3.333 3.333 0 0 0 26.667 42H13.333ZM42 13.333A3.333 3.333 0 0 1 45.333 10h13.334A3.333 3.333 0 0 1 62 13.333v13.334A3.333 3.333 0 0 1 58.667 30H45.333A3.333 3.333 0 0 1 42 26.667V13.333ZM45.333 42A3.333 3.333 0 0 0 42 45.333v13.334A3.333 3.333 0 0 0 45.333 62h13.334A3.333 3.333 0 0 0 62 58.667V45.333A3.333 3.333 0 0 0 58.667 42H45.333Z"
        clip-rule="evenodd" />
    <path fill="#94F0D7"
        d="M6 9.333A3.333 3.333 0 0 1 9.333 6h13.334A3.333 3.333 0 0 1 26 9.333v13.334A3.333 3.333 0 0 1 22.667 26H9.333A3.333 3.333 0 0 1 6 22.667V9.333Z" />
    <path fill="#763B28" fill-rule="evenodd"
        d="M9.333 4h13.334A5.333 5.333 0 0 1 28 9.333v13.334A5.333 5.333 0 0 1 22.667 28H9.333A5.333 5.333 0 0 1 4 22.667V9.333A5.333 5.333 0 0 1 9.333 4Zm0 2A3.333 3.333 0 0 0 6 9.333v13.334A3.333 3.333 0 0 0 9.333 26h13.334A3.333 3.333 0 0 0 26 22.667V9.333A3.333 3.333 0 0 0 22.667 6H9.333Z"
        clip-rule="evenodd" />
    <path fill="#94F0D7"
        d="M6 41.333A3.333 3.333 0 0 1 9.333 38h13.334A3.333 3.333 0 0 1 26 41.333v13.334A3.333 3.333 0 0 1 22.667 58H9.333A3.333 3.333 0 0 1 6 54.667V41.333Z" />
    <path fill="#763B28" fill-rule="evenodd"
        d="M9.333 36h13.334A5.333 5.333 0 0 1 28 41.333v13.334A5.333 5.333 0 0 1 22.667 60H9.333A5.333 5.333 0 0 1 4 54.667V41.333A5.333 5.333 0 0 1 9.333 36Zm0 2A3.333 3.333 0 0 0 6 41.333v13.334A3.333 3.333 0 0 0 9.333 58h13.334A3.333 3.333 0 0 0 26 54.667V41.333A3.333 3.333 0 0 0 22.667 38H9.333Z"
        clip-rule="evenodd" />
    <path fill="#94F0D7"
        d="M38 9.333A3.333 3.333 0 0 1 41.333 6h13.334A3.333 3.333 0 0 1 58 9.333v13.334A3.333 3.333 0 0 1 54.667 26H41.333A3.333 3.333 0 0 1 38 22.667V9.333Z" />
    <path fill="#763B28" fill-rule="evenodd"
        d="M41.333 4h13.334A5.333 5.333 0 0 1 60 9.333v13.334A5.333 5.333 0 0 1 54.667 28H41.333A5.333 5.333 0 0 1 36 22.667V9.333A5.333 5.333 0 0 1 41.333 4Zm0 2A3.333 3.333 0 0 0 38 9.333v13.334A3.333 3.333 0 0 0 41.333 26h13.334A3.333 3.333 0 0 0 58 22.667V9.333A3.333 3.333 0 0 0 54.667 6H41.333Z"
        clip-rule="evenodd" />
    <path fill="#94F0D7"
        d="M38 41.333A3.333 3.333 0 0 1 41.333 38h13.334A3.333 3.333 0 0 1 58 41.333v13.334A3.333 3.333 0 0 1 54.667 58H41.333A3.333 3.333 0 0 1 38 54.667V41.333Z" />
    <path fill="#763B28" fill-rule="evenodd"
        d="M41.333 36h13.334A5.333 5.333 0 0 1 60 41.333v13.334A5.333 5.333 0 0 1 54.667 60H41.333A5.333 5.333 0 0 1 36 54.667V41.333A5.333 5.333 0 0 1 41.333 36Zm0 2A3.333 3.333 0 0 0 38 41.333v13.334A3.333 3.333 0 0 0 41.333 58h13.334A3.333 3.333 0 0 0 58 54.667V41.333A3.333 3.333 0 0 0 54.667 38H41.333Z"
        clip-rule="evenodd" />
    <path fill="#47D7AF" fill-rule="evenodd"
        d="M6.198 23.802c.355.128.737.198 1.135.198h13.334A3.333 3.333 0 0 0 24 20.667V7.333c0-.398-.07-.78-.198-1.135A3.335 3.335 0 0 1 26 9.333v13.334A3.333 3.333 0 0 1 22.667 26H9.333a3.335 3.335 0 0 1-3.135-2.198Zm0 32c.355.128.737.198 1.135.198h13.334A3.333 3.333 0 0 0 24 52.667V39.333c0-.398-.07-.78-.198-1.135A3.335 3.335 0 0 1 26 41.333v13.334A3.333 3.333 0 0 1 22.667 58H9.333a3.335 3.335 0 0 1-3.135-2.198Zm32-32c.355.128.737.198 1.135.198h13.334A3.333 3.333 0 0 0 56 20.667V7.333c0-.398-.07-.78-.198-1.135A3.335 3.335 0 0 1 58 9.333v13.334A3.333 3.333 0 0 1 54.667 26H41.333a3.335 3.335 0 0 1-3.135-2.198Zm0 32c.355.128.737.198 1.135.198h13.334A3.333 3.333 0 0 0 56 52.667V39.333c0-.398-.07-.78-.198-1.135A3.335 3.335 0 0 1 58 41.333v13.334A3.333 3.333 0 0 1 54.667 58H41.333a3.335 3.335 0 0 1-3.135-2.198Z"
        clip-rule="evenodd" />
    <path fill="#fff" fill-rule="evenodd"
        d="M7 10a3 3 0 0 1 3-3h7a1 1 0 1 1 0 2h-7a1 1 0 0 0-1 1v6a1 1 0 1 1-2 0v-6zm0 32a3 3 0 0 1 3-3h7a1 1 0 1 1 0 2h-7a1 1 0 0 0-1 1v6a1 1 0 1 1-2 0v-6zm32-32a3 3 0 0 1 3-3h7a1 1 0 1 1 0 2h-7a1 1 0 0 0-1 1v6a1 1 0 1 1-2 0v-6zm0 32a3 3 0 0 1 3-3h7a1 1 0 1 1 0 2h-7a1 1 0 0 0-1 1v6a1 1 0 1 1-2 0v-6z"
        clip-rule="evenodd" />
</svg>