<svg xmlns="http://www.w3.org/2000/svg" enable-background="new 0 0 53 53" viewBox="0 0 53 53"><path d="M50.2533112,7.0283542v12.5599365c0,1.2000732-0.9700317,2.1700439-2.1600342,2.1700439h-6.5V6.8183932
			c0-1.2000732,0.4899902-2.2800293,1.2700195-3.0600586c0.8400269-0.8400879,2.039978-1.3500977,3.3599854-1.2600098
			C48.5332794,2.6483493,50.2533112,4.7082858,50.2533112,7.0283542z"/><path d="M48.0931396,22.2583008h-6.5c-0.2763672,0-0.5-0.2236328-0.5-0.5V6.8188477
			c0-1.2880859,0.5029297-2.5,1.4165039-3.4140625c0.9882813-0.9882813,2.3520508-1.4921875,3.7480469-1.4052734
			c2.5200195,0.1630859,4.4956055,2.3720703,4.4956055,5.0292969v12.5595703
			C50.7532959,21.0610352,49.5599365,22.2583008,48.0931396,22.2583008z M42.0931396,21.2583008h6
			c0.9150391,0,1.6601563-0.7490234,1.6601563-1.6699219V7.0288086c0-2.1308594-1.5644531-3.9023438-3.5620117-4.03125
			c-1.109375-0.0693359-2.1904297,0.3310547-2.9746094,1.1142578c-0.7246094,0.7246094-1.1235352,1.6865234-1.1235352,2.7070313
			V21.2583008z"/><path fill="#ddd" d="M47.2533112,7.0283542v12.5599365c0,1.2000732-0.9700317,2.1700439-2.1600342,2.1700439h-6.5V6.8183932
			c0-1.2000732,0.4899902-2.2800293,1.2700195-3.0600586c0.8400269-0.8400879,2.039978-1.3500977,3.3599854-1.2600098
			C45.5332794,2.6483493,47.2533112,4.7082858,47.2533112,7.0283542z"/><path d="M45.0931396,22.2583008h-6.5c-0.2763672,0-0.5-0.2236328-0.5-0.5V6.8188477
			c0-1.2880859,0.5029297-2.5,1.4165039-3.4140625c0.9887695-0.9882813,2.355957-1.4921875,3.7480469-1.4052734
			c2.5200195,0.1630859,4.4956055,2.3720703,4.4956055,5.0292969v12.5595703
			C47.7532959,21.0610352,46.5599365,22.2583008,45.0931396,22.2583008z M39.0931396,21.2583008h6
			c0.9155273,0,1.6601563-0.7490234,1.6601563-1.6699219V7.0288086c0-2.1308594-1.5644531-3.9023438-3.5620117-4.03125
			c-1.1088867-0.0693359-2.1904297,0.3310547-2.9746094,1.1142578c-0.7246094,0.7246094-1.1235352,1.6865234-1.1235352,2.7070313
			V21.2583008z"/><path fill="#fff" d="M42.9232941,2.4883151c-1.2000122,0-2.2800293,0.4899902-3.0599976,1.2700195
			C39.0832672,4.5383639,38.593277,5.61832,38.593277,6.8183932v39.3299561c0,2.4000244-1.9400024,4.3399658-4.3399658,4.3399658
			H6.8532867c-2.3900146,0-4.3300171-1.9399414-4.3300171-4.3399658V6.8183932c0-2.3901367,1.9400024-4.3300781,4.3300171-4.3300781
			H42.9232941z"/><path d="M34.2532959,50.9887695H6.8533955c-2.6630859,0-4.8300781-2.171875-4.8300781-4.8408203V6.8188477
			c0-2.6630859,2.1669922-4.8300781,4.8300781-4.8300781h36.0698242c0.2763672,0,0.5,0.2236328,0.5,0.5s-0.2236328,0.5-0.5,0.5
			c-1.0209961,0-1.9824219,0.3984375-2.706543,1.1230469c-0.7246094,0.7246094-1.1235352,1.6865234-1.1235352,2.7070313v39.3291016
			C39.0931396,48.8168945,36.9217529,50.9887695,34.2532959,50.9887695z M6.8533955,2.9887695
			c-2.1118164,0-3.8300781,1.7177734-3.8300781,3.8300781v39.3291016c0,2.1181641,1.7182617,3.8408203,3.8300781,3.8408203
			h27.3999004c2.1171875,0,3.8398438-1.7226563,3.8398438-3.8408203V6.8188477c0-1.2880859,0.5029297-2.5,1.4165039-3.4140625
			c0.1499023-0.1494141,0.3076172-0.2890625,0.4726563-0.4160156H6.8533955z"/><path d="M7.4540558 6.4888034h3.4863281c1.1835938 0 2.1015625.4199219 2.7539063 1.2597656.5820313.757813.8730469 1.7285161.8730469 2.9121099 0 .9140625-.171875 1.7402344-.515625 2.4785156-.6054688 1.3046875-1.6464844 1.9570313-3.1230469 1.9570313H7.4540558V6.4888034zM10.7060089 14.100132c.3945313 0 .71875-.0410156.9726563-.1230469.453125-.1523438.8242188-.4453125 1.1132813-.8789063.2304688-.3476563.3964844-.7929688.4980469-1.3359375.0585938-.3242188.0878906-.625.0878906-.9023438 0-1.0664063-.2119141-1.8945313-.6357422-2.484375s-1.1064453-.8847661-2.0478516-.8847661H8.6259308v6.6093755H10.7060089zM16.3310089 6.4888034h1.1777344v8.6074219h-1.1777344V6.4888034zM19.5126495 6.4888034h6.2753906v1.0546875h-5.1386719v2.6132817h4.7519531v.9960938h-4.7519531v2.9179688h5.2265625v1.0253906h-6.3632813V6.4888034zM33.6688995 6.4888034V7.514194h-2.9003906v7.5820317h-1.1835938V7.514194h-2.9003906V6.4888034H33.6688995zM34.5931396 19.0083008h-20.025877c-.2763672 0-.5-.2236328-.5-.5s.2236328-.5.5-.5h20.025877c.2763672 0 .5.2236328.5.5S34.8695068 19.0083008 34.5931396 19.0083008zM34.5931396 23.6713867h-20.025877c-.2763672 0-.5-.2236328-.5-.5s.2236328-.5.5-.5h20.025877c.2763672 0 .5.2236328.5.5S34.8695068 23.6713867 34.5931396 23.6713867zM34.5931396 28.3354492h-20.025877c-.2763672 0-.5-.2236328-.5-.5s.2236328-.5.5-.5h20.025877c.2763672 0 .5.2236328.5.5S34.8695068 28.3354492 34.5931396 28.3354492zM34.5931396 32.9985352h-20.025877c-.2763672 0-.5-.2236328-.5-.5s.2236328-.5.5-.5h20.025877c.2763672 0 .5.2236328.5.5S34.8695068 32.9985352 34.5931396 32.9985352zM34.5931396 37.6616211h-20.025877c-.2763672 0-.5-.2236328-.5-.5s.2236328-.5.5-.5h20.025877c.2763672 0 .5.2236328.5.5S34.8695068 37.6616211 34.5931396 37.6616211zM34.5931396 42.3256836h-20.025877c-.2763672 0-.5-.2236328-.5-.5s.2236328-.5.5-.5h20.025877c.2763672 0 .5.2236328.5.5S34.8695068 42.3256836 34.5931396 42.3256836zM34.5931396 46.9887695h-20.025877c-.2763672 0-.5-.2236328-.5-.5s.2236328-.5.5-.5h20.025877c.2763672 0 .5.2236328.5.5S34.8695068 46.9887695 34.5931396 46.9887695zM10.1732197 19.0083008H6.5233173c-.2763672 0-.5-.2236328-.5-.5s.2236328-.5.5-.5h3.6499023c.2763672 0 .5.2236328.5.5S10.4495869 19.0083008 10.1732197 19.0083008zM10.1732197 23.6713867H6.5233173c-.2763672 0-.5-.2236328-.5-.5s.2236328-.5.5-.5h3.6499023c.2763672 0 .5.2236328.5.5S10.4495869 23.6713867 10.1732197 23.6713867zM10.1732197 28.3354492H6.5233173c-.2763672 0-.5-.2236328-.5-.5s.2236328-.5.5-.5h3.6499023c.2763672 0 .5.2236328.5.5S10.4495869 28.3354492 10.1732197 28.3354492zM10.1732197 32.9985352H6.5233173c-.2763672 0-.5-.2236328-.5-.5s.2236328-.5.5-.5h3.6499023c.2763672 0 .5.2236328.5.5S10.4495869 32.9985352 10.1732197 32.9985352zM10.1732197 37.6616211H6.5233173c-.2763672 0-.5-.2236328-.5-.5s.2236328-.5.5-.5h3.6499023c.2763672 0 .5.2236328.5.5S10.4495869 37.6616211 10.1732197 37.6616211zM10.1732197 42.3256836H6.5233173c-.2763672 0-.5-.2236328-.5-.5s.2236328-.5.5-.5h3.6499023c.2763672 0 .5.2236328.5.5S10.4495869 42.3256836 10.1732197 42.3256836zM10.1732197 46.9887695H6.5233173c-.2763672 0-.5-.2236328-.5-.5s.2236328-.5.5-.5h3.6499023c.2763672 0 .5.2236328.5.5S10.4495869 46.9887695 10.1732197 46.9887695z"/><path fill="#5ae4a7" d="M48.6435394,46.646122c-0.9534225,1.4626198-2.9370995,4.8319397-6.5254745,3.5765915
				c0,0-0.4441109-0.1125107-0.900074-0.1125107c-0.4559669,0-0.9060059,0.1125107-0.9060059,0.1125107
				c-3.5884438,1.2553482-5.5721245-2.1139717-6.5254707-3.5765915c-3.2331028-4.93256-0.3789864-9.4151192-0.3789864-9.4151192
				c2.0962257-3.5173569,6.1998367-2.3330612,7.4432602-1.8712082c0.2369461,0.0888367,0.4915276,0.0888367,0.7284012,0
				c1.2434959-0.461853,5.3470345-1.6461487,7.4432602,1.8712082C49.0224495,37.2310028,51.8766403,41.713562,48.6435394,46.646122z
				"/><path d="M38.7513428,51.0112305c-2.7407227,0-4.3935547-2.5595703-5.2597656-3.9013672l-0.1240234-0.1914063
				c-3.3701153-5.1416016-0.4121094-9.9082031-0.3818359-9.9560547c2.2880859-3.8408203,6.730957-2.5556641,8.0395508-2.0712891
				c0.125,0.046875,0.2548828,0.0458984,0.3779297,0.0009766c1.3095703-0.4873047,5.7524414-1.7705078,8.0493164,2.0830078
				c0.0224609,0.0351563,2.9804688,4.8017578-0.390625,9.9453125l-0.1230469,0.1894531
				c-1.0307617,1.5966797-3.1733398,4.9179688-6.9833984,3.5859375l0,0c-0.0083008,0-0.375-0.0859375-0.7373047-0.0859375
				c-0.3852539,0-0.7807617,0.0976563-0.784668,0.0986328C39.8319092,50.918457,39.2723389,51.0112305,38.7513428,51.0112305z
				 M37.8656006,35.2973633c-1.4174805,0-3.0019531,0.4667969-4.0283203,2.1894531
				c-0.1162109,0.1845703-2.6415997,4.2939453,0.3671875,8.8847656l0.1269531,0.1962891
				c0.9604492,1.4873047,2.7480469,4.2558594,5.8154297,3.1835938c0.0639648-0.0185547,0.559082-0.1416016,1.0712891-0.1416016
				c0.5131836,0,1.0029297,0.1240234,1.0234375,0.1289063c3.1103516,1.0878906,4.8969727-1.6835938,5.8569336-3.1708984
				l0.1259766-0.1943359c0.0004883-0.0009766,0.0004883-0.0009766,0.0009766-0.0019531
				c3.0209961-4.6083984,0.4023438-8.8300781,0.3754883-8.8720703c-1.9091797-3.2011719-5.7241211-2.0878906-6.8476563-1.6708984
				c-0.3466797,0.1289063-0.7294922,0.1298828-1.078125-0.0009766
				C40.1590576,35.6362305,39.0726318,35.2973633,37.8656006,35.2973633z"/><path d="M41.3963623,37.605957c-0.5444336,0-1.1464844-0.1054688-1.8032227-0.3183594
				c-0.2626953-0.0849609-0.4067383-0.3662109-0.3217773-0.6298828c0.0844727-0.2617188,0.3657227-0.4052734,0.6293945-0.3212891
				c1.0800781,0.3496094,1.9365234,0.3613281,2.5463867,0.0351563c0.2441406-0.1328125,0.5463867-0.0390625,0.6767578,0.2041016
				c0.1303711,0.2441406,0.0385742,0.546875-0.2050781,0.6767578C42.4788818,37.4887695,41.9696045,37.605957,41.3963623,37.605957z
				"/><path d="M41.2156982,37.6020508c-0.0058594,0-0.0117188,0-0.0175781,0
				c-0.2758789-0.0097656-0.4921875-0.2412109-0.4824219-0.5166016c0.1079102-3.1552734-1.1220703-4.3037109-1.1347656-4.3154297
				c-0.203125-0.1835938-0.2231445-0.4980469-0.0424805-0.703125c0.1826172-0.2060547,0.4916992-0.2304688,0.6987305-0.0507813
				c0.065918,0.0556641,1.6035156,1.4208984,1.4775391,5.1025391
				C41.7054443,37.3891602,41.4837646,37.6020508,41.2156982,37.6020508z"/><path d="M40.9642334,34.9633789c-0.0556641,0-0.1123047-0.0087891-0.1674805-0.0292969
				c-0.2602539-0.0917969-0.3959961-0.3779297-0.3037109-0.6376953c0.043457-0.1220703,1.0947266-2.9873047,4.0224609-3.0429688
				c0.003418,0,0.0068359,0,0.0097656,0c0.2719727,0,0.4946289,0.2177734,0.5,0.4902344
				c0.0053711,0.2763672-0.2143555,0.5048828-0.4907227,0.5097656c-2.2436523,0.0429688-3.0908203,2.3544922-3.0991211,2.3769531
				C41.3626556,34.8354492,41.1697998,34.9633789,40.9642334,34.9633789z"/><path fill="#ddd" d="M50.4693336,29.5438709c-0.8463745,3.9754314-3.1646919,5.4907856-7.9299927,2.943243
				c0,0,0.7091522-3.4828663,4.0141563-3.478775c0.3826752,0.0039291,0.7598495,0.0684261,1.1287346,0.1609726
				c0.5226936,0.1279354,1.5569649,0.3078747,2.3678627-0.015131C50.2861519,29.060154,50.5222435,29.2953472,50.4693336,29.5438709
				z"/><path d="M46.5438232,34.2436523c-1.1938477,0-2.5966797-0.4375-4.2402344-1.3154297
				c-0.1948242-0.1044922-0.2983398-0.3242188-0.2539063-0.5410156c0.2729492-1.3417969,1.5649414-3.8789063,4.4985352-3.8789063
				c0.0019531,0,0.0039063,0,0.0058594,0c0.3867188,0.0039063,0.7944336,0.0615234,1.25,0.1757813
				c0.3837891,0.09375,1.3613281,0.2822266,2.0605469,0.0048828c0.2763672-0.109375,0.5800781-0.0595703,0.8105469,0.1357422
				c0.2392578,0.2021484,0.3476563,0.5175781,0.2832031,0.8222656v0.0009766
				c-0.4736328,2.2246094-1.3574219,3.6103516-2.7036133,4.2353516
				C47.7391357,34.1235352,47.1702881,34.2436523,46.5438232,34.2436523z M43.1287842,32.2299805
				c2.0102539,1.0126953,3.5913086,1.2626953,4.7041016,0.7470703c0.9741211-0.453125,1.6743164-1.546875,2.0834961-3.2539063
				c-0.8623047,0.2236328-1.8227539,0.0615234-2.3530273-0.0683594c-0.3818359-0.0957031-0.7124023-0.1435547-1.0146484-0.1464844
				c-0.0019531,0-0.003418,0-0.0048828,0C44.2630615,29.5083008,43.3953857,31.4145508,43.1287842,32.2299805z
				 M50.4691162,29.543457h0.0097656H50.4691162z"/></svg>