<svg xmlns="http://www.w3.org/2000/svg" enable-background="new 0 0 53 53" viewBox="0 0 53 53"><path d="M46.3765907,46.8382301l-1.8363647-6.1724243c-1.1729736-3.932373-4.2304077-7.0185547-8.1626587-8.2203369
				l-3.932312-1.2018452v-5.1265259h-6.2842999v24.3554707h17.5139751
				C45.55933,50.4725685,46.9245644,48.6554298,46.3765907,46.8382301z"/><path d="M43.6745605,50.972168H26.1608887c-0.2763672,0-0.5-0.2236328-0.5-0.5V26.1166992c0-0.2763672,0.2236328-0.5,0.5-0.5
				h6.2841797c0.2763672,0,0.5,0.2236328,0.5,0.5v4.7568359l3.5791016,1.09375
				c4.09375,1.2509766,7.2695313,4.4492188,8.4951172,8.5556641l1.8359375,6.171875
				c0.3066406,1.0146484,0.1191406,2.0849609-0.5126953,2.9355469C45.7087402,50.4829102,44.7370605,50.972168,43.6745605,50.972168
				z M26.6608887,49.972168h17.0136719c0.7421875,0,1.4228516-0.3417969,1.8652344-0.9384766
				c0.4413834-0.59375,0.5722656-1.3417969,0.3583984-2.0507813c0-0.0009766-0.0009766-0.0009766-0.0009766-0.0019531
				l-1.8369141-6.1728516c-1.1289063-3.7841797-4.0556641-6.7314453-7.8291245-7.8837891L32.298584,31.722168
				c-0.2099609-0.0644531-0.3535156-0.2587891-0.3535156-0.4785156v-4.6269531h-5.2841797V49.972168z"/><path fill="#ddd" d="M40.6749039,50.4725609H9.331811c-1.8940773,0-3.2496896-1.8267708-2.7112823-3.6342926l1.8459582-6.1820831
				c1.1729937-3.9227142,4.2303829-7.0089149,8.1530371-8.2107239l3.9323368-1.201807v-5.1265621h8.8933697v5.1265621
				l3.9323368,1.201807c3.9322777,1.2018089,6.989666,4.2880096,8.1626625,8.2203445l1.8363342,6.1724625
				C43.9245949,48.6554146,42.5593605,50.4725609,40.6749039,50.4725609z"/><path d="M40.6745605,50.972168H9.3317881c-1.0615234,0-2.0341797-0.4882813-2.6679688-1.3398438
				c-0.6347656-0.8505859-0.8251953-1.9208984-0.5224609-2.9365234l1.8457031-6.1826172
				c1.2265625-4.0996094,4.3984375-7.2939453,8.4863272-8.5458984l3.578125-1.09375v-4.7568359c0-0.2763672,0.2236328-0.5,0.5-0.5
				h8.8935547c0.2763672,0,0.5,0.2236328,0.5,0.5v4.7568359l3.5791016,1.09375
				c4.09375,1.2509766,7.2695313,4.4492188,8.4951172,8.5556641l1.8368912,6.1728516
				c0.305687,1.0136719,0.118187,2.0839844-0.513649,2.9345703C42.7087402,50.4829102,41.7370605,50.972168,40.6745605,50.972168z
				 M21.0515137,26.6166992v4.6269531c0,0.2197266-0.1435547,0.4140625-0.3535156,0.4785156l-3.9316406,1.2021484
				c-3.7675772,1.1533203-6.6914053,4.0966797-7.8203115,7.875L7.1003428,46.980957
				c-0.2119141,0.7099609-0.0791016,1.4589844,0.3652344,2.0537109c0.4433594,0.5957031,1.1240234,0.9375,1.8662109,0.9375
				h31.3427734c0.7421875,0,1.4228516-0.3417969,1.8652344-0.9384766c0.4413834-0.59375,0.5722656-1.3417969,0.3583984-2.0507813
				l-1.8378906-6.1748047c-1.1289063-3.7841797-4.0556641-6.7314453-7.8291245-7.8837891L29.298584,31.722168
				c-0.2099609-0.0644531-0.3535156-0.2587891-0.3535156-0.4785156v-4.6269531H21.0515137z"/><path d="M15.4646006,39.7553711c-0.2763672,0-0.5-0.2236328-0.5-0.5v-6.2695313c0-0.2763672,0.2236328-0.5,0.5-0.5
				s0.5,0.2236328,0.5,0.5v6.2695313C15.9646006,39.5317383,15.7409678,39.7553711,15.4646006,39.7553711z"/><circle cx="15.464" cy="41.779" r="2.524" fill="#5ae4a7"/><path d="M15.4646006 44.8032227c-1.6679688 0-3.0244141-1.3564453-3.0244141-3.0234375 0-1.6679688 1.3564453-3.0244141 3.0244141-3.0244141 1.6669912 0 3.0234365 1.3564453 3.0234365 3.0244141C18.4880371 43.4467773 17.1315918 44.8032227 15.4646006 44.8032227zM15.4646006 39.7553711c-1.1162109 0-2.0244141.9082031-2.0244141 2.0244141s.9082031 2.0234375 2.0244141 2.0234375 2.0234365-.9072266 2.0234365-2.0234375S16.5808105 39.7553711 15.4646006 39.7553711zM37.947998 47.8110352h-.2705078c-.2763672 0-.5-.2236328-.5-.5s.2236328-.5.5-.5h.2705078c.4589844 0 .8320313-.3730469.8320313-.8320313v-5.1728516c0-.6796875-.3759766-1.2939453-.9814453-1.6025391l-3.1455078-1.6074219-3.1455078 1.6074219c-.6054688.3085938-.9814453.9228516-.9814453 1.6025391v5.1728516c0 .4589844.3730469.8320313.8320313.8320313h.2705078c.2763672 0 .5.2236328.5.5s-.2236328.5-.5.5h-.2705078c-1.0097656 0-1.8320313-.8222656-1.8320313-1.8320313v-5.1728516c0-1.0576172.5849609-2.0126953 1.5263672-2.4931641l3.3730469-1.7236328c.1425781-.0722656.3125-.0722656.4550781 0l3.3730469 1.7236328c.9414063.4804688 1.5263672 1.4355469 1.5263672 2.4931641v5.1728516C39.7800293 46.9887695 38.9577637 47.8110352 37.947998 47.8110352z"/><path d="M34.6530762,37.534668c-0.2763672,0-0.5-0.2236328-0.5-0.5v-4.0253906c0-0.2763672,0.2236328-0.5,0.5-0.5
					s0.5,0.2236328,0.5,0.5v4.0253906C35.1530762,37.3110352,34.9294434,37.534668,34.6530762,37.534668z"/><circle cx="32.596" cy="47.311" r=".94" fill="#5ae4a7"/><path d="M32.5964355,48.7504883c-0.7939453,0-1.4404297-0.6455078-1.4404297-1.4394531s0.6464844-1.4404297,1.4404297-1.4404297
					s1.4394531,0.6464844,1.4394531,1.4404297S33.3903809,48.7504883,32.5964355,48.7504883z M32.5964355,46.8706055
					c-0.2431641,0-0.4404297,0.1972656-0.4404297,0.4404297c0,0.2421875,0.1972656,0.4394531,0.4404297,0.4394531
					c0.2421875,0,0.4394531-0.1972656,0.4394531-0.4394531C33.0358887,47.0678711,32.838623,46.8706055,32.5964355,46.8706055z"/><circle cx="36.781" cy="47.311" r=".94" fill="#5ae4a7"/><path d="M36.7810059,48.7504883c-0.7939453,0-1.4394531-0.6455078-1.4394531-1.4394531s0.6455078-1.4404297,1.4394531-1.4404297
					s1.4404297,0.6464844,1.4404297,1.4404297S37.5749512,48.7504883,36.7810059,48.7504883z M36.7810059,46.8706055
					c-0.2421875,0-0.4394531,0.1972656-0.4394531,0.4404297c0,0.2421875,0.1972656,0.4394531,0.4394531,0.4394531
					c0.2431641,0,0.4404297-0.1972656,0.4404297-0.4394531C37.2214355,47.0678711,37.0241699,46.8706055,36.7810059,46.8706055z"/><path fill="#ddd" d="M30.2954311,39.7305107c2.9990025-0.6853485,5.9096851-0.7337036,8.7116909,0"/><path d="M39.0075684,40.230957c-0.0419922,0-0.0839844-0.0048828-0.1269531-0.0166016
					c-2.6152344-0.6855469-5.4667969-0.6845703-8.4736328,0.0039063c-0.2744141,0.0644531-0.5371094-0.1083984-0.5986328-0.3759766
					c-0.0615234-0.2695313,0.1064453-0.5371094,0.3759766-0.5986328c3.1660156-0.7236328,6.1777344-0.7226563,8.9501953,0.0039063
					c0.2666016,0.0693359,0.4267578,0.3427734,0.3564453,0.6103516C39.432373,40.0825195,39.229248,40.230957,39.0075684,40.230957z
					"/><polygon fill="#5ae4a7" points="29.447 31.248 27.51 50.473 22.49 50.473 20.553 31.248"/><path d="M27.510498,50.972168h-5.0205078c-0.2568359,0-0.4716797-0.1943359-0.4970703-0.4501953l-1.9365234-19.2246094
				c-0.0146484-0.140625,0.03125-0.2802734,0.1259766-0.3847656c0.0947266-0.1054688,0.2294922-0.1650391,0.3710938-0.1650391
				h8.8935547c0.1416016,0,0.2763672,0.0595703,0.3710938,0.1650391c0.0947266,0.1044922,0.140625,0.2441406,0.1259766,0.3847656
				l-1.9365234,19.2246094C27.9821777,50.777832,27.767334,50.972168,27.510498,50.972168z M22.9421387,49.972168h4.1162109
				l1.8359375-18.2246094h-7.7881088L22.9421387,49.972168z"/><polygon fill="#ffddab" points="29.447 26.114 29.447 31.248 25.005 39.054 20.553 31.248 20.553 26.114"/><path d="M25.0056152 39.5532227c-.1796875 0-.3457031-.0966797-.4345703-.2519531l-4.4521484-7.8056641c-.0429688-.0761719-.0654297-.1611328-.0654297-.2480469v-5.1337891c0-.2763672.2236328-.5.5-.5h8.8935547c.2763672 0 .5.2236328.5.5v5.1337891c0 .0869141-.0224609.171875-.0654297.2470703l-4.4414063 7.8056641C25.3513184 39.456543 25.1853027 39.5532227 25.0056152 39.5532227L25.0056152 39.5532227zM21.0534668 31.1147461l3.9511719 6.9287109 3.9423828-6.9277344v-4.5019531h-7.8935547V31.1147461zM33.7535439 2.5279872h-7.5925884V18.025362l13.6771221-.281189V8.6125212C39.8380775 5.2538786 37.1123085 2.5279872 33.7535439 2.5279872z"/><path d="M26.1608887,18.5249023c-0.1308594,0-0.2568359-0.0507813-0.3496094-0.1425781
				c-0.0966797-0.0947266-0.1503906-0.2226563-0.1503906-0.3574219V2.527832c0-0.2763672,0.2236328-0.5,0.5-0.5h7.5927734
				c3.6308594,0,6.5839844,2.9541016,6.5839844,6.5849609v9.1318359c0,0.2724609-0.2177734,0.4941406-0.4902344,0.5
				l-13.6767578,0.2802734C26.1677246,18.5249023,26.1638184,18.5249023,26.1608887,18.5249023z M39.8376465,17.7446289h0.0097656
				H39.8376465z M26.6608887,3.027832v14.4863281l12.6767578-0.2597656V8.612793
				c0-3.0791016-2.5048828-5.5849609-5.5839844-5.5849609H26.6608887z"/><circle cx="37.696" cy="18.959" r="2.89"/><path d="M37.6960449,22.3491211c-1.8691406,0-3.3896484-1.5214844-3.3896484-3.390625s1.5205078-3.3896484,3.3896484-3.3896484
				s3.390625,1.5205078,3.390625,3.3896484S39.5651855,22.3491211,37.6960449,22.3491211z M37.6960449,16.5688477
				c-1.3173828,0-2.3896484,1.0722656-2.3896484,2.3896484c0,1.3183594,1.0722656,2.390625,2.3896484,2.390625
				c1.3183594,0,2.390625-1.0722656,2.390625-2.390625C40.0866699,17.6411133,39.0144043,16.5688477,37.6960449,16.5688477z"/><path d="M26.1609554,14.2731047v15.2799063c0.5952148,0.114624,1.2081299,0.1796875,1.8366699,0.1796875
				c2.6799927,0,5.1000347-1.0900269,6.8600445-2.8500366c1.7599487-1.75,2.8399658-4.1699829,2.8399658-6.8499756V16.042696
				C37.6976357,16.042696,31.019537,16.450655,26.1609554,14.2731047z"/><path d="M27.9978027,30.2329102c-0.6289063,0-1.2783203-0.0634766-1.9306641-0.1884766
				c-0.2363281-0.0449219-0.40625-0.2509766-0.40625-0.4912109V14.2729492c0-0.1699219,0.0859375-0.3271484,0.2285156-0.4199219
				c0.1425781-0.0917969,0.3232422-0.1064453,0.4755859-0.0361328c4.6865234,2.1005859,11.2363281,1.7285156,11.3027344,1.7265625
				c0.1376953-0.0087891,0.2734375,0.0410156,0.3730469,0.1347656c0.1005859,0.0947266,0.1572266,0.2265625,0.1572266,0.3642578
				v3.9902344c0,2.7304688-1.0605469,5.2880859-2.9873047,7.2041016
				C33.2790527,29.168457,30.7175293,30.2329102,27.9978027,30.2329102z M26.6608887,29.1313477
				c3.0039063,0.4472656,5.7900391-0.5488281,7.84375-2.6025391c1.7373047-1.7275391,2.6933594-4.0341797,2.6933594-6.4960938
				v-3.46875c-1.6044922,0.0390625-6.4863281,0.0361328-10.5371094-1.5400391V29.1313477z"/><path fill="#283e42" d="M36.8380775,8.6125317v9.1316433l-23.6760101,0.4867611v-5.6756506
				c0-1.7815628,1.1292591-3.3586645,2.8037481-3.9427538c0-1.6842341,0.6814785-3.2029266,1.7815628-4.3029518
				c1.1000252-1.1000853,2.6284618-1.7815626,4.3029518-1.7815626h8.7032318
				C34.1122856,2.5280173,36.8380775,5.2538676,36.8380775,8.6125317z"/><path d="M13.1618662,18.730957c-0.1308594,0-0.2568359-0.0507813-0.3496094-0.1425781
				c-0.0966797-0.0947266-0.1503906-0.2226563-0.1503906-0.3574219v-5.6757813c0-1.8681641,1.1162109-3.5488281,2.8125-4.2871094
				c0.0830078-1.6298828,0.7578115-3.1503906,1.9199209-4.3115234c1.2421875-1.2441406,2.8964844-1.9287109,4.65625-1.9287109
				h8.703125c3.6308594,0,6.5839844,2.9541016,6.5839844,6.5849609v9.1318359c0,0.2724609-0.2177734,0.4941406-0.4892578,0.5
				L13.1726084,18.730957C13.1687021,18.730957,13.1647959,18.730957,13.1618662,18.730957z M36.8376465,17.7446289h0.0097656
				H36.8376465z M22.0505371,3.027832c-1.4931641,0-2.8955078,0.5810547-3.9492188,1.6357422
				c-1.0546875,1.0537109-1.6357422,2.4560547-1.6357422,3.9492188c0,0.2128906-0.1347656,0.4023438-0.3349609,0.4716797
				c-1.4765615,0.515625-2.468749,1.9101563-2.468749,3.4707031v5.1650391l22.6757813-0.4658203V8.612793
				c0-3.0791016-2.5048828-5.5849609-5.5839844-5.5849609H22.0505371z"/><circle cx="15.304" cy="18.959" r="2.89" fill="#ffddab"/><path d="M15.3034678,22.3491211c-1.8691406,0-3.3896484-1.5214844-3.3896484-3.390625s1.5205078-3.3896484,3.3896484-3.3896484
					s3.390624,1.5205078,3.390624,3.3896484S17.1726074,22.3491211,15.3034678,22.3491211z M15.3034678,16.5688477
					c-1.3173828,0-2.3896484,1.0722656-2.3896484,2.3896484c0,1.3183594,1.0722656,2.390625,2.3896484,2.390625
					c1.3183584,0,2.390624-1.0722656,2.390624-2.390625C17.6940918,17.6411133,16.6218262,16.5688477,15.3034678,16.5688477z"/><circle cx="34.696" cy="18.959" r="2.89" fill="#ffddab"/><path d="M34.6960449,22.3491211c-1.8691406,0-3.3896484-1.5214844-3.3896484-3.390625s1.5205078-3.3896484,3.3896484-3.3896484
					s3.390625,1.5205078,3.390625,3.3896484S36.5651855,22.3491211,34.6960449,22.3491211z M34.6960449,16.5688477
					c-1.3173828,0-2.3896484,1.0722656-2.3896484,2.3896484c0,1.3183594,1.0722656,2.390625,2.3896484,2.390625
					c1.3183594,0,2.390625-1.0722656,2.390625-2.390625C37.0866699,17.6411133,36.0144043,16.5688477,34.6960449,16.5688477z"/><path fill="#ffddab" d="M34.6976357,16.042696v3.9899902c0,2.6799927-1.0800171,5.0999756-2.8399639,6.8499756
				c-1.7600098,1.7600098-4.1800537,2.8500366-6.8600464,2.8500366c-5.3499756,0-9.6900034-4.3500366-9.6900034-9.7000122v-3.960022
				c4.6199961-1.6300039,3.8900156-4.9899893,3.8900156-4.9899893C22.7676449,16.7726765,34.6976357,16.042696,34.6976357,16.042696
				z"/><path d="M24.9978027,30.2329102c-5.6191406,0-10.1904287-4.5761719-10.1904287-10.2001953v-3.9599609
				c0-0.2119141,0.1337891-0.4013672,0.3339844-0.4716797c4.1201162-1.453125,3.5917959-4.2949219,3.5673819-4.4160156
				c-0.0478516-0.2363281,0.0791016-0.4755859,0.3037109-0.5654297c0.2255859-0.0888672,0.4804688-0.0078125,0.609375,0.1972656
				c3.3720703,5.3759766,14.9257813,4.7324219,15.0458984,4.7265625c0.1435547-0.0087891,0.2734375,0.0400391,0.3730469,0.1347656
				c0.1005859,0.0947266,0.1572266,0.2265625,0.1572266,0.3642578v3.9902344c0,2.7294922-1.0605469,5.2880859-2.9873047,7.2041016
				C30.2790527,29.168457,27.7175293,30.2329102,24.9978027,30.2329102z M15.807374,16.4204102v3.6123047
				c0,5.0732422,4.1230459,9.2001953,9.1904287,9.2001953c2.4521484,0,4.7626953-0.9599609,6.5068359-2.7041016
				c1.7373047-1.7275391,2.6933594-4.0341797,2.6933594-6.4960938v-3.46875
				c-2.2275391,0.0654297-10.6884766,0.0322266-14.5605469-4.0996094
				C19.3845215,13.6782227,18.517334,15.3598633,15.807374,16.4204102z"/><ellipse cx="20.553" cy="18.421" rx="1.563" ry="1.172"/><ellipse cx="29.447" cy="18.421" rx="1.563" ry="1.172"/><path fill="#fff" d="M28.8350945,24.3526936c-0.4799805,1.6699829-2.0100098,2.8999634-3.8300171,2.8999634
			c-1.8299561,0-3.3599854-1.2299805-3.8399658-2.8999634c-0.1199951-0.4300537,0.2199707-0.8500366,0.6699829-0.8500366h6.3300171
			C28.6151237,23.5026569,28.9550896,23.9226398,28.8350945,24.3526936z"/></svg>