<svg xmlns="http://www.w3.org/2000/svg" enable-background="new 0 0 90 90" viewBox="0 0 90 90"><path d="M44.219,5.037c-4.008,0.492-7.064,3.823-7.209,7.859C25.905,16.397,18.348,26.69,18.334,38.334V57
		c0,1.473-1.194,2.667-2.667,2.667c-4.418,0-8,3.582-8,8c0,4.418,3.582,8,8,8h18.758c0.732,5.84,6.059,9.981,11.899,9.25
		c4.835-0.606,8.644-4.414,9.25-9.25h18.758c4.418,0,8-3.582,8-8c0-4.418-3.582-8-8-8c-1.473,0-2.667-1.194-2.667-2.667V38.334
		C71.653,26.693,64.1,16.403,53,12.899c-0.064-4.426-3.703-7.962-8.129-7.899C44.653,5.004,44.436,5.016,44.219,5.037z M45,82.333
		c-3.899-0.007-7.227-2.822-7.88-6.667h15.76C52.227,79.511,48.899,82.326,45,82.333z M69,38.334V57
		c0,2.945,2.388,5.333,5.333,5.333s5.333,2.388,5.333,5.333c0,2.945-2.388,5.333-5.333,5.333H15.667
		c-2.945,0-5.333-2.388-5.333-5.333c0-2.945,2.388-5.333,5.333-5.333S21,59.946,21,57V38.334
		c0.011-10.817,7.249-20.293,17.682-23.149c0.581-0.158,0.984-0.685,0.984-1.287v-0.6C39.592,10.273,41.976,7.757,45,7.667
		c2.943,0.006,5.327,2.39,5.333,5.333v0.893c0,0.602,0.403,1.129,0.984,1.287C61.752,18.037,68.99,27.515,69,38.334z"/><path d="M28.392,10.481C18.268,15.466,11.803,25.716,11.667,37c0,0.736,0.597,1.333,1.333,1.333s1.333-0.597,1.333-1.333
		c0.139-10.283,6.043-19.615,15.274-24.146c0.655-0.336,0.914-1.139,0.579-1.795C29.851,10.404,29.048,10.145,28.392,10.481
		L28.392,10.481z"/><path d="M21.603 6.551C11.273 13.238 5.026 24.695 5.001 37c0 .736.597 1.333 1.333 1.333S7.667 37.737 7.667 37c.026-11.405 5.82-22.023 15.397-28.217.616-.405.788-1.233.383-1.849-.405-.616-1.233-.788-1.849-.383l0 0L21.603 6.551zM75.666 37c0 .736.597 1.333 1.333 1.333s1.333-.597 1.333-1.333c-.136-11.284-6.601-21.535-16.725-26.52-.655-.336-1.459-.077-1.795.579-.336.655-.077 1.459.579 1.795C69.623 17.385 75.527 26.718 75.666 37z"/><path d="M68.397 6.551c-.616-.405-1.444-.234-1.849.383-.405.616-.234 1.444.383 1.849C76.51 14.976 82.306 25.594 82.333 37c0 .736.597 1.333 1.333 1.333s1.333-.597 1.333-1.333C84.974 24.695 78.727 13.238 68.397 6.551zM41 33v2.667h-2.667c-1.473 0-2.667 1.194-2.667 2.667V41c0 1.473 1.194 2.667 2.667 2.667H41v2.667C41 47.806 42.194 49 43.667 49h2.667C47.806 49 49 47.806 49 46.334v-2.667h2.667c1.473 0 2.667-1.194 2.667-2.667v-2.667c0-1.473-1.194-2.667-2.667-2.667H49V33c0-1.473-1.194-2.667-2.667-2.667h-2.667C42.194 30.334 41 31.528 41 33zM47.667 38.334h4V41h-4c-.736 0-1.333.597-1.333 1.333v4h-2.667v-4c0-.736-.597-1.333-1.333-1.333h-4v-2.667h4c.736 0 1.333-.597 1.333-1.333v-4h2.667v4C46.333 37.737 46.93 38.334 47.667 38.334z"/><path d="M29,39.667c0,8.836,7.163,16,16,16s16-7.163,16-16s-7.163-16-16-16C36.168,23.677,29.01,30.835,29,39.667z M58.333,39.667
		C58.333,47.031,52.364,53,45,53s-13.333-5.969-13.333-13.333S37.636,26.334,45,26.334C52.36,26.342,58.325,32.307,58.333,39.667z"/></svg>