<svg xmlns="http://www.w3.org/2000/svg" fill-rule="evenodd" clip-rule="evenodd" image-rendering="optimizeQuality" shape-rendering="geometricPrecision" text-rendering="geometricPrecision" viewBox="0 0 213.33 213.33"><path fill-rule="nonzero" d="M18.56 53.51l88.1 0 88.1 0c5.11,0 9.74,2.09 13.1,5.44 3.36,3.36 5.44,8 5.44,13.11l0 69.2c0,5.11 -2.09,9.74 -5.44,13.11 -3.36,3.36 -8,5.44 -13.1,5.44l-88.1 0 -88.1 0c-5.11,0 -9.74,-2.09 -13.1,-5.44 -3.36,-3.36 -5.44,-8 -5.44,-13.11l0 -69.2c0,-5.11 2.09,-9.74 5.44,-13.11 3.36,-3.36 8,-5.44 13.1,-5.44zm14.28 35.17c-2.76,0 -5,-2.24 -5,-5 0,-2.76 2.24,-5 5,-5l46.46 0c2.76,0 5,2.24 5,5 0,2.76 -2.24,5 -5,5l-46.46 0zm0 22.99c-2.76,0 -5,-2.24 -5,-5 0,-2.76 2.24,-5 5,-5l46.46 0c2.76,0 5,2.24 5,5 0,2.76 -2.24,5 -5,5l-46.46 0zm0 22.99c-2.76,0 -5,-2.24 -5,-5 0,-2.76 2.24,-5 5,-5l15.31 0c2.76,0 5,2.24 5,5 0,2.76 -2.24,5 -5,5l-15.31 0zm37.93 0c-2.76,0 -5,-2.24 -5,-5 0,-2.76 2.24,-5 5,-5l8.53 0c2.76,0 5,2.24 5,5 0,2.76 -2.24,5 -5,5l-8.53 0zm65.49 -61.07c4.91,0 9.36,1.99 12.58,5.21 3.22,3.22 5.21,7.67 5.21,12.58 0,4.91 -1.99,9.36 -5.21,12.58 -3.22,3.22 -7.67,5.21 -12.58,5.21 -4.91,0 -9.36,-1.99 -12.58,-5.21 -3.22,-3.22 -5.21,-7.67 -5.21,-12.58 0,-4.91 2,-9.36 5.21,-12.58 3.22,-3.22 7.67,-5.21 12.58,-5.21zm5.52 12.28c-1.41,-1.41 -3.36,-2.28 -5.52,-2.28 -2.15,0 -4.1,0.87 -5.51,2.28 -1.41,1.41 -2.28,3.36 -2.28,5.52 0,2.15 0.87,4.1 2.28,5.51 1.41,1.41 3.36,2.28 5.51,2.28 2.15,0 4.11,-0.87 5.52,-2.28 1.41,-1.41 2.28,-3.36 2.28,-5.51 0,-2.15 -0.87,-4.1 -2.28,-5.52zm36.43 18.3c4.91,0 9.36,1.99 12.58,5.21 3.22,3.22 5.21,7.67 5.21,12.58 0,4.91 -1.99,9.36 -5.21,12.58 -3.22,3.22 -7.67,5.21 -12.58,5.21 -4.91,0 -9.36,-1.99 -12.58,-5.21 -3.22,-3.22 -5.21,-7.67 -5.21,-12.58 0,-4.91 1.99,-9.36 5.21,-12.58 3.22,-3.22 7.67,-5.21 12.58,-5.21zm5.51 12.28c-1.41,-1.41 -3.36,-2.28 -5.51,-2.28 -2.15,0 -4.1,0.87 -5.52,2.28 -1.41,1.41 -2.28,3.36 -2.28,5.51 0,2.15 0.87,4.1 2.28,5.52 1.41,1.41 3.36,2.28 5.52,2.28 2.15,0 4.1,-0.87 5.51,-2.28 1.41,-1.41 2.28,-3.36 2.28,-5.52 0,-2.15 -0.87,-4.1 -2.28,-5.51zm-14.58 -40.37c1.38,-2.39 4.43,-3.2 6.81,-1.82 2.39,1.38 3.2,4.43 1.82,6.82l-32.43 56.17c-1.38,2.39 -4.43,3.2 -6.81,1.82 -2.39,-1.38 -3.2,-4.43 -1.82,-6.82l32.43 -56.17zm-57.46 -12.57l0 86.31 83.1 0c2.35,0 4.48,-0.96 6.04,-2.52 1.55,-1.55 2.52,-3.69 2.52,-6.04l0 -69.2c0,-2.35 -0.96,-4.48 -2.52,-6.04 -1.55,-1.55 -3.69,-2.52 -6.04,-2.52l-83.1 0zm-10 86.31l0 -86.31 -83.1 0c-2.35,0 -4.48,0.96 -6.04,2.52 -1.55,1.55 -2.52,3.69 -2.52,6.04l0 69.2c0,2.35 0.96,4.48 2.52,6.04 1.55,1.55 3.69,2.52 6.04,2.52l83.1 0z"/></svg>