<svg xmlns="http://www.w3.org/2000/svg" enable-background="new 0 0 53 53" viewBox="0 0 53 53"><path d="M44.0000725,7.0481906v38.8999634c0,2.5200195-2.039978,4.5499878-4.5499878,4.5499878H28.8800793v-48h10.5700054
			C41.9600945,2.4981418,44.0000725,4.5381808,44.0000725,7.0481906z"/><path d="M39.4501953,50.9985352H28.8798828c-0.2763672,0-0.5-0.2236328-0.5-0.5v-48c0-0.2763672,0.2236328-0.5,0.5-0.5h10.5703125
			C42.234375,1.9985352,44.5,4.2641602,44.5,7.0483398v38.8994141C44.5,48.7329102,42.234375,50.9985352,39.4501953,50.9985352z
			 M29.3798828,49.9985352h10.0703125c2.2333984,0,4.0498047-1.8173828,4.0498047-4.0507813V7.0483398
			c0-2.2333984-1.8164063-4.0498047-4.0498047-4.0498047H29.3798828V49.9985352z"/><path fill="#fff" d="M41.0000725,7.0481906v38.8999634c0,2.5200195-2.039978,4.5499878-4.5499878,4.5499878H7.0500622
			c-2.5100098,0-4.5499878-2.0299683-4.5499878-4.5499878V7.0481906c0-2.5100098,2.039978-4.5500488,4.5499878-4.5500488h29.4000225
			C38.9600945,2.4981418,41.0000725,4.5381808,41.0000725,7.0481906z"/><path d="M36.4501953,50.9985352H7.0498047C4.265625,50.9985352,2,48.7329102,2,45.9477539V7.0483398
			c0-2.7841797,2.265625-5.0498047,5.0498047-5.0498047h29.4003906C39.234375,1.9985352,41.5,4.2641602,41.5,7.0483398v38.8994141
			C41.5,48.7329102,39.234375,50.9985352,36.4501953,50.9985352z M7.0498047,2.9985352C4.8164063,2.9985352,3,4.8149414,3,7.0483398
			v38.8994141c0,2.2333984,1.8164063,4.0507813,4.0498047,4.0507813h29.4003906
			c2.2333984,0,4.0498047-1.8173828,4.0498047-4.0507813V7.0483398c0-2.2333984-1.8164063-4.0498047-4.0498047-4.0498047H7.0498047z
			"/><path d="M21.5996094 46.9985352H6.5c-.2763672 0-.5-.2236328-.5-.5s.2236328-.5.5-.5h15.0996094c.2763672 0 .5.2236328.5.5S21.8759766 46.9985352 21.5996094 46.9985352zM37 6.9985352h-6.875c-.2763672 0-.5-.2236328-.5-.5s.2236328-.5.5-.5H37c.2763672 0 .5.2236328.5.5S37.2763672 6.9985352 37 6.9985352zM28 6.9985352h-3.25c-.2763672 0-.5-.2236328-.5-.5s.2236328-.5.5-.5H28c.2763672 0 .5.2236328.5.5S28.2763672 6.9985352 28 6.9985352zM37 11.9985352h-3.25c-.2763672 0-.5-.2236328-.5-.5s.2236328-.5.5-.5H37c.2763672 0 .5.2236328.5.5S37.2763672 11.9985352 37 11.9985352zM31.1875 11.9985352H24.75c-.2763672 0-.5-.2236328-.5-.5s.2236328-.5.5-.5h6.4375c.2763672 0 .5.2236328.5.5S31.4638672 11.9985352 31.1875 11.9985352zM37 16.9985352h-6.5625c-.2763672 0-.5-.2236328-.5-.5s.2236328-.5.5-.5H37c.2763672 0 .5.2236328.5.5S37.2763672 16.9985352 37 16.9985352zM28 16.9985352h-3.25c-.2763672 0-.5-.2236328-.5-.5s.2236328-.5.5-.5H28c.2763672 0 .5.2236328.5.5S28.2763672 16.9985352 28 16.9985352zM37 21.9985352h-3.5625c-.2763672 0-.5-.2236328-.5-.5s.2236328-.5.5-.5H37c.2763672 0 .5.2236328.5.5S37.2763672 21.9985352 37 21.9985352zM31.1875 21.9985352H24.75c-.2763672 0-.5-.2236328-.5-.5s.2236328-.5.5-.5h6.4375c.2763672 0 .5.2236328.5.5S31.4638672 21.9985352 31.1875 21.9985352zM37 26.9985352H15.625c-.2763672 0-.5-.2236328-.5-.5s.2236328-.5.5-.5H37c.2763672 0 .5.2236328.5.5S37.2763672 26.9985352 37 26.9985352zM12.9375 26.9985352H6.5c-.2763672 0-.5-.2236328-.5-.5s.2236328-.5.5-.5h6.4375c.2763672 0 .5.2236328.5.5S13.2138672 26.9985352 12.9375 26.9985352zM37 31.9985352h-5.125c-.2763672 0-.5-.2236328-.5-.5s.2236328-.5.5-.5H37c.2763672 0 .5.2236328.5.5S37.2763672 31.9985352 37 31.9985352zM29.5 31.9985352h-23c-.2763672 0-.5-.2236328-.5-.5s.2236328-.5.5-.5h23c.2763672 0 .5.2236328.5.5S29.7763672 31.9985352 29.5 31.9985352zM37 36.9985352H14.0498047c-.2763672 0-.5-.2236328-.5-.5s.2236328-.5.5-.5H37c.2763672 0 .5.2236328.5.5S37.2763672 36.9985352 37 36.9985352zM12 36.9985352H6.5c-.2763672 0-.5-.2236328-.5-.5s.2236328-.5.5-.5H12c.2763672 0 .5.2236328.5.5S12.2763672 36.9985352 12 36.9985352zM31.875 41.9985352H6.5c-.2763672 0-.5-.2236328-.5-.5s.2236328-.5.5-.5h25.375c.2763672 0 .5.2236328.5.5S32.1513672 41.9985352 31.875 41.9985352z"/><path fill="#5ae4a7" d="M21.60005,8.7881813v10.5199585c0,1.2700195-1.0199585,2.2900391-2.289978,2.2900391H8.7900524
			c-1.2699585,0-2.289978-1.0200195-2.289978-2.2900391V8.7881813c0-1.27002,1.0200195-2.2900395,2.289978-2.2900395h10.5200195
			C20.5800915,6.4981418,21.60005,7.5181613,21.60005,8.7881813z"/><path d="M19.3105469,22.0981445H8.7900391C7.2519531,22.0981445,6,20.8461914,6,19.3081055V8.7885742
			c0-1.5380859,1.2519531-2.7900391,2.7900391-2.7900391h10.5205078c1.5380859,0,2.7890625,1.2519531,2.7890625,2.7900391
			v10.5195313C22.0996094,20.8461914,20.8486328,22.0981445,19.3105469,22.0981445z M8.7900391,6.9985352
			C7.8027344,6.9985352,7,7.8012695,7,8.7885742v10.5195313c0,0.9873047,0.8027344,1.7900391,1.7900391,1.7900391h10.5205078
			c0.9863281,0,1.7890625-0.8027344,1.7890625-1.7900391V8.7885742c0-0.9873047-0.8027344-1.7900391-1.7890625-1.7900391H8.7900391z
			"/><path d="M9.7403049,8.7864857h4.213769c0.8329792,0,1.5044632,0.234807,2.0144501,0.7044201
				c0.5099878,0.4696131,0.7649813,1.1294088,0.7649813,1.9793882c0,0.7309809-0.2273693,1.367403-0.6821079,1.9092646
				c-0.4547396,0.5418615-1.1538467,0.8127918-2.0973234,0.8127918h-2.9451761v3.9587765H9.7403049V8.7864857z
				 M14.6871805,10.0742035c-0.2804928-0.1317463-0.6651077-0.1976204-1.1538458-0.1976204h-2.524437v3.2447939h2.524437
				c0.5694857,0,1.031662-0.1211214,1.386528-0.3633652c0.354866-0.2422447,0.532299-0.6693583,0.532299-1.2813435
				C15.4521618,10.7881861,15.1971684,10.3206978,14.6871805,10.0742035z"/><path d="M14.1848164,19.3098354h-0.9542866l2.0914783-2.9940739l-1.9602642-2.8469553h0.9900723l1.4910727,2.234621
				l1.4791441-2.234621h0.942358l-1.9602642,2.8469553l2.0556927,2.9940739h-0.9821205l-1.5745716-2.4016209L14.1848164,19.3098354z
				"/><path fill="#5ae4a7" d="M50.5000725,33.8424072V47.930069c0,1.4130402-1.1580658,2.5711098-2.5710411,2.5711098H36.0086212
			c-1.4129753,0-2.5710449-1.1580696-2.5710449-2.5711098V33.8424072c0-1.4130402,1.1580696-2.5711098,2.5710449-2.5711098
			h11.9204102C49.3420067,31.2712975,50.5000725,32.4293671,50.5000725,33.8424072z"/><path d="M47.9287109,51.0014648H36.0087891c-1.6933594,0-3.0712891-1.3779297-3.0712891-3.0712891V33.8422852
			c0-1.6933594,1.3779297-3.0712891,3.0712891-3.0712891h11.9199219C49.6220703,30.7709961,51,32.1489258,51,33.8422852v14.0878906
			C51,49.6235352,49.6220703,51.0014648,47.9287109,51.0014648z M36.0087891,31.7709961
			c-1.1425781,0-2.0712891,0.9287109-2.0712891,2.0712891v14.0878906c0,1.1425781,0.9287109,2.0712891,2.0712891,2.0712891
			h11.9199219C49.0712891,50.0014648,50,49.0727539,50,47.9301758V33.8422852c0-1.1425781-0.9287109-2.0712891-2.0712891-2.0712891
			H36.0087891z"/><circle cx="37.934" cy="44.342" r="2.074" fill="#fff"/><circle cx="37.934" cy="37.431" r="2.074" fill="#fff"/><circle cx="46.003" cy="44.342" r="2.074" fill="#fff"/><circle cx="46.003" cy="37.431" r="2.074" fill="#fff"/><path d="M41.96875,47.8706055c-0.2763672,0-0.5-0.2236328-0.5-0.5v-12.96875c0-0.2763672,0.2236328-0.5,0.5-0.5
			s0.5,0.2236328,0.5,0.5v12.96875C42.46875,47.6469727,42.2451172,47.8706055,41.96875,47.8706055z"/></svg>