<svg xmlns="http://www.w3.org/2000/svg" enable-background="new 0 0 20 20" viewBox="0 0 20 20"><path fill="#95da98" d="M8.17,1.17C6.82,0.84,5.55,1.01,4.44,1.51l3.1,3.1c0.4,0.4,0.4,1.05,0,1.45L6.05,7.55
			c-0.4,0.4-1.05,0.4-1.45,0l-3.1-3.1C1.01,5.55,0.84,6.83,1.17,8.18c0.51,2.11,2.22,3.8,4.34,4.27c1.31,0.29,2.55,0.12,3.63-0.36
			l6.23,6.24c0.73,0.73,1.91,0.91,2.75,0.31c1.07-0.77,1.16-2.28,0.27-3.17l-6.31-6.32c0.48-1.08,0.65-2.32,0.36-3.63
			C11.97,3.39,10.28,1.68,8.17,1.17z"/><polygon fill="#95da98" points="2.71 5.65 1.5 4.45 1.5 4.45 2.7 5.65"/><path fill="#7fcc7f" d="M3.61 10.55c-.62-.14-1.21-.39-1.74-.72.81 1.31 2.11 2.29 3.64 2.62 1.31.29 2.55.12 3.63-.36l-1.9-1.9C6.16 10.67 4.92 10.84 3.61 10.55zM18.39 15.47l-6.31-6.32c.48-1.08.65-2.32.36-3.63-.34-1.53-1.32-2.84-2.62-3.64.33.53.59 1.12.72 1.74.29 1.31.12 2.56-.36 3.63l6.31 6.32c.89.89.8 2.4-.27 3.17-.84.6-2.01.43-2.74-.3l1.89 1.89c.73.73 1.91.91 2.75.31C19.19 17.86 19.28 16.36 18.39 15.47z"/><polygon fill="#95da98" points="9.13 12.09 13.47 16.43 13.48 16.44 9.14 12.09"/><path fill="#2d4356" d="M16.97,19.5c-0.7,0-1.41-0.28-1.95-0.82l-6-6c-1.15,0.44-2.39,0.53-3.62,0.26c-2.3-0.51-4.16-2.33-4.72-4.64
			C0.35,6.94,0.48,5.53,1.05,4.25c0.07-0.15,0.2-0.26,0.37-0.29C1.58,3.93,1.74,3.98,1.86,4.1l3.1,3.1c0.1,0.1,0.23,0.15,0.37,0.15
			l0,0C5.47,7.35,5.6,7.3,5.7,7.2l1.49-1.49c0.21-0.21,0.21-0.54,0-0.75l-3.1-3.1C3.97,1.74,3.92,1.58,3.95,1.41
			c0.03-0.16,0.14-0.3,0.29-0.37c1.28-0.57,2.69-0.7,4.05-0.37l0,0c2.31,0.56,4.13,2.42,4.63,4.72c0.27,1.23,0.18,2.47-0.26,3.62
			l6.08,6.08c0.54,0.54,0.81,1.28,0.75,2.03c-0.06,0.76-0.45,1.45-1.07,1.9C17.99,19.35,17.48,19.5,16.97,19.5z M9.14,11.59
			c0.13,0,0.26,0.05,0.35,0.15l6.24,6.24c0.59,0.59,1.49,0.7,2.11,0.25c0.39-0.28,0.63-0.69,0.66-1.17
			c0.04-0.46-0.13-0.92-0.46-1.25L11.72,9.5c-0.15-0.15-0.19-0.37-0.1-0.56c0.46-1.04,0.58-2.19,0.33-3.32
			c-0.42-1.94-1.95-3.49-3.89-3.96l0,0c-0.91-0.22-1.83-0.2-2.7,0.05L7.9,4.25c0.6,0.6,0.6,1.56,0,2.16L6.41,7.9
			C6.12,8.19,5.74,8.35,5.33,8.35h0c-0.41,0-0.79-0.16-1.08-0.45L1.7,5.36c-0.25,0.88-0.27,1.8-0.05,2.71
			c0.47,1.94,2.03,3.47,3.96,3.9c1.13,0.25,2.28,0.14,3.32-0.33C9,11.6,9.07,11.59,9.14,11.59z"/></svg>