<svg xmlns="http://www.w3.org/2000/svg" enable-background="new 0 0 64 64" viewBox="0 0 64 64"><linearGradient id="a" x1="32" x2="32" y1="8" y2="56" gradientUnits="userSpaceOnUse"><stop offset="0" stop-color="#fdf4b0"/><stop offset=".251" stop-color="#a4dcb9"/><stop offset=".505" stop-color="#5bcebf"/><stop offset=".754" stop-color="#32b9be"/><stop offset="1" stop-color="#2e97b7"/></linearGradient><path fill="url(#a)" d="M32,8C18.8,8,8,18.8,8,32c0,7.5,3.4,14.4,9.3,19c1.1,0.8,2.3,1.6,3.5,2.2C24.2,55,28.1,56,32,56
		c6,0,11.7-2.2,16.1-6.2h0c5-4.5,7.9-11,7.9-17.8C56,18.8,45.2,8,32,8z M32,54c-3.4,0-6.8-0.8-9.9-2.3L18.4,39
		c-0.2-0.5,0.1-1.1,0.7-1.2l12.5-3.7l2.6,8.6c0.1,0.3,0.2,0.5,0.5,0.6c0.1,0.1,0.3,0.1,0.5,0.1c0.1,0,0.2,0,0.3,0l8.6-2.6l2.4,7.9
		C42.3,52.1,37.3,54,32,54z M33.8,34.9l8.2,4.4l-6.3,1.9L33.8,34.9z M19.6,50.1c-0.3-0.2-0.7-0.5-1-0.7C13.1,45.2,10,38.9,10,32
		c0-12.1,9.9-22,22-22s22,9.9,22,22c0,5.7-2.2,11.1-6.1,15.2l-2.3-7.9c0,0,0,0,0,0c-0.1-0.2-0.2-0.5-0.5-0.6l-11.5-6.2L32.7,32
		c0,0,0,0,0,0l0,0c-0.1-0.1-0.2-0.1-0.3-0.1c0,0-0.1,0-0.1,0c-0.1,0-0.2,0-0.3,0c0,0,0,0,0,0l-13.4,4c-1.6,0.5-2.5,2.1-2,3.7"/><linearGradient id="b" x1="32.818" x2="32.818" y1="8.087" y2="55.121" gradientUnits="userSpaceOnUse"><stop offset="0" stop-color="#fdf4b0"/><stop offset=".251" stop-color="#a4dcb9"/><stop offset=".505" stop-color="#5bcebf"/><stop offset=".754" stop-color="#32b9be"/><stop offset="1" stop-color="#2e97b7"/></linearGradient><path fill="url(#b)" d="M39.8,15.8c-0.4,0-0.8,0-1.1,0.1c-1.3-2.4-3.8-3.9-6.5-3.9c-3.7,0-6.8,2.8-7.3,6.4c-2.8-0.2-5.2,2-5.2,4.8
		c0,2.7,2.2,4.8,4.8,4.8H32v2c0,0.6,0.4,1,1,1s1-0.4,1-1v-2h5.8c3.4,0,6.1-2.7,6.1-6.1S43.2,15.8,39.8,15.8z M39.8,26H34v-2.6
		l1.3,1.3c0.2,0.2,0.5,0.3,0.7,0.3s0.5-0.1,0.7-0.3c0.4-0.4,0.4-1,0-1.4l-3-3c-0.4-0.4-1-0.4-1.4,0l-3,3c-0.4,0.4-0.4,1,0,1.4
		s1,0.4,1.4,0l1.3-1.3V26h-7.5c-1.6,0-2.8-1.3-2.8-2.8s1.3-2.8,2.8-2.8c0.3,0,0.6,0.1,0.9,0.2c0.3,0.1,0.7,0.1,0.9-0.1
		c0.3-0.2,0.4-0.5,0.4-0.8c0,0,0-0.2,0-0.2c0-3,2.4-5.4,5.4-5.4c2.2,0,4.2,1.4,5,3.5c0.2,0.5,0.8,0.8,1.3,0.6
		c0.4-0.2,0.9-0.2,1.4-0.2c2.3,0,4.1,1.8,4.1,4.1S42.1,26,39.8,26z"/></svg>