<svg xmlns="http://www.w3.org/2000/svg" enable-background="new 0 0 20 20" viewBox="0 0 20 20"><path fill="#95da98" d="M19,15.95c0,2.39-4.03,3.05-9,3.05s-9-0.66-9-3.05s4.03-5.59,9-5.59S19,13.56,19,15.95z"/><circle cx="10" cy="5.68" r="4.68" fill="#f9deb0"/><path fill="#7fcc7f" d="M16.46,12.33C16.8,12.88,17,13.43,17,13.95C17,16.34,12.97,17,8,17c-2.81,0-5.33-0.21-6.98-0.83
			C1.27,18.37,5.19,19,10,19c4.97,0,9-0.66,9-3.05C19,14.78,18.03,13.42,16.46,12.33z"/><path fill="#e5c698" d="M12.33,1.65c0.4,0.69,0.65,1.48,0.65,2.33c0,2.58-2.1,4.68-4.68,4.68c-0.85,0-1.64-0.25-2.33-0.65
			c0.81,1.4,2.3,2.35,4.03,2.35c2.58,0,4.68-2.09,4.68-4.68C14.68,3.95,13.73,2.46,12.33,1.65z"/><path fill="#2d4356" d="M10,19.5c-4.08,0-9.5-0.37-9.5-3.55c0-2.74,4.38-6.09,9.5-6.09c5.12,0,9.5,3.35,9.5,6.09
			C19.5,19.13,14.08,19.5,10,19.5z M10,10.86c-4.85,0-8.5,3.09-8.5,5.09c0,1.67,2.94,2.55,8.5,2.55c5.56,0,8.5-0.88,8.5-2.55
			C18.5,13.95,14.85,10.86,10,10.86z"/><path fill="#2d4356" d="M10,10.86c-2.86,0-5.18-2.32-5.18-5.18S7.14,0.5,10,0.5s5.18,2.32,5.18,5.18S12.86,10.86,10,10.86z M10,1.5
			c-2.3,0-4.18,1.88-4.18,4.18S7.7,9.86,10,9.86c2.3,0,4.18-1.88,4.18-4.18S12.3,1.5,10,1.5z"/></svg>