<?xml version="1.0" encoding="UTF-8"?><!DOCTYPE svg PUBLIC "-//W3C//DTD SVG 1.1//EN" "http://www.w3.org/Graphics/SVG/1.1/DTD/svg11.dtd"><svg xmlns="http://www.w3.org/2000/svg" xmlns:xlink="http://www.w3.org/1999/xlink" xml:space="preserve" width="2048px" height="2048px" viewBox="0 0 2048 2048" shape-rendering="geometricPrecision" text-rendering="geometricPrecision" image-rendering="optimizeQuality" fill-rule="evenodd" clip-rule="evenodd"><defs><style type="text/css"><![CDATA[
    .fil0 {fill:none}
    .fil1 {fill:#212121}
    .fil4 {fill:#43A047}
    .fil2 {fill:#E6BFA4}
    .fil3 {fill:#F7C5A9}
    .fil5 {fill:#FCD2B5}
   ]]></style></defs><g id="Layer_x0020_1"><path class="fil0" fill="none" d="M0 0h2048v2048H0z"/><path class="fil1" d="M1633.07 1323.31c-48.418-44.536-127.814-17.418-178.159 7.748-91.009 44.535-172.348 63.899-273.042 52.283-49.933-3.838-66.787-10.699-159.671-9.966-82.024-.733-98.865 6.13-148.8 9.966-100.686 11.616-182.025-7.747-273.036-52.283-50.342-25.166-129.739-52.284-178.149-7.748-25.179 25.176-36.794 104.569 0 123.919l597.736 176.896v1.266l2.138-.633 2.107.633v-1.246l608.875-176.916c36.79-19.352 25.17-98.74 0-123.919z" fill="#212121"/><path class="fil2" d="M1019.95 1583.54c-25.172-5.815-41.978 31.395-76.83 13.96-23.245-11.617-58.086-25.18-79.398-42.609-92.945-79.377-176.215-176.197-305.96-185.89-63.304-4.527-132.45 19.114-140.823 74.56 15.875 15.775 35.355 30.224 51.745 47.43 38.729 38.74 69.714 64.384 123.931 83.736 48.411 17.435 100.7 28.58 151.051 40.208 15.064 3.135 101.205 35.23 139.952 55.591 73.31 38.524 64.918 77.515 131.154 63.35 13.549-9.688 11.621-74.844 11.621-92.269 1.935-21.285 22.6-54.2-6.444-58.067z" fill="#E6BFA4"/><path class="fil2" d="M1035.98 1583.54c25.172-5.815 41.978 31.395 76.83 13.96 23.245-11.617 58.086-25.18 79.398-42.609 92.945-79.377 176.215-176.197 305.96-185.89 63.304-4.527 132.45 19.114 140.823 74.56-15.875 15.775-35.355 30.224-51.745 47.43-38.729 38.74-69.714 64.384-123.931 83.736-48.411 17.435-100.7 28.58-151.051 40.208-15.064 3.135-101.205 35.23-139.952 55.591-73.31 38.524-64.918 77.515-131.154 63.35-13.549-9.688-11.621-74.844-11.621-92.269-1.935-21.285-22.6-54.2 6.444-58.067z" fill="#E6BFA4"/><path class="fil3" d="M1229.24 827.188v-.596l-1.111-.435c-7.358-6.712-17.524-13.713-32.12-18.768l-.83.477v-.828c-51.583-16.035-119.905-12.543-122.729-74.597.001-5.351-.075-10.696.54-16.022l-.539-.212V663.47H975.554v52.736l-.539.212c.615 5.326.539 10.67.54 16.022-2.824 62.054-71.146 58.562-122.728 74.597v.828l-.83-.477c-14.597 5.055-24.763 12.056-32.12 18.768l-1.112.435v.596c-6.267 5.915-10.393 11.517-13.495 15.245-33.587 36.425-49.024 109.013-73.724 154.498-32.013 57.974-36.646 104.403-95.286 135.177-45.131 26.445-97.974 63.214-135.592 97.26-19.85 17.955-67.445 36.15-67.445 36.15-38.282-2.8-58.885 13.228-90.255 19.835-17.197 2.28-55.545-13.218-76.238-9.452-59.503 10.824 145.551 67.118 197.686 29.877l49.112-25.218c112.315-53.446 221.202-94.049 265.179-186.718 11.574-25.107 32.53-69.192 59.94-106.876 1.042-.55 2.12-1.08 3.244-1.598 12.08 7.078 9.928 49.926 9.312 62.97h345.601c-.617-13.044-2.769-55.892 9.312-62.97a66.345 66.345 0 0 1 3.243 1.598c27.41 37.683 48.366 81.77 59.94 106.876 43.978 92.67 152.865 133.272 265.18 186.718l49.111 25.218c52.135 37.241 257.19-19.053 197.686-29.877-20.693-3.766-59.04 11.732-76.238 9.452-31.37-6.607-51.973-22.635-90.255-19.835 0 0-47.595-18.195-67.444-36.15-37.618-34.046-90.461-70.815-135.592-97.26-58.64-30.774-63.273-77.203-95.287-135.177-24.7-45.485-40.136-118.073-73.723-154.498-3.103-3.728-7.229-9.33-13.496-15.245z" fill="#F7C5A9"/><path class="fil4" d="M1196.03 1390.61c20.247 2 24.687 2.9 24.687-17.43-1.449-14.53-14.517-33.404-20.332-46.476-13.066-24.69-20.323-47.927-26.137-76.98-8.722-40.66-5.81-78.421 14.522-111.827 24.697-36.31 26.145-62.448 17.43-103.122-7.262-36.305-24.694-69.701-27.595-106.018-4.357-42.119 5.806-79.283 7.258-119.958l-40.66-7.842c0 76.965-37.763 135.071-117.65 135.071h-15.203c-79.873 0-117.634-58.106-117.634-135.071l-40.668 7.84c1.458 40.676 11.615 77.84 7.264 119.96-2.906 36.317-20.336 69.715-27.595 106.018-8.714 40.674-7.265 66.814 17.424 103.122 20.337 33.404 23.238 71.166 14.522 111.827-5.801 29.053-13.066 52.29-26.145 76.98-5.801 13.071-18.874 31.946-20.33 46.475 0 20.331 4.357 17.43 24.7 17.43 55.186 0 178.318-17.232 352.142 0z" fill="#43A047"/><path class="fil1" d="M1124.73 623.454c68.263 60.977 141.808 137.092 123.706 245.745-7.757 49.153-33.279 82.781-41.036 134.524-5.166 59.492-12.182 129.347-30.281 183.675 0-41.394-.763-103.48-13.696-144.873-12.943-49.153-25.878-93.122-12.943-144.873 10.351-36.203 29.22-51.728 26.639-87.946-2.585-49.143-23.932-91.63-52.392-125.275l.003-60.977z" fill="#212121"/><path class="fil3" d="M1140.34 574.991c-.497-36.808 44-34.23 52.81-4.819 11.13 34.793-23.019 80.079-57.375 83.35l4.565-78.531z" fill="#F7C5A9"/><path class="fil3" d="M896.601 574.991c.497-36.808-44.01-34.23-52.812-4.819-11.119 34.793 23.035 80.079 57.375 83.35L896.6 574.99z" fill="#F7C5A9"/><path class="fil5" d="M1154.07 492.915c3.583 45.145 9.543 104.873-4.739 150.149-9.546 35.744-76.27 126.3-119.172 121.547h-24.597c-42.903 4.753-109.626-85.801-119.165-121.547-14.299-45.279-4.753-104.863-4.753-150.147.002-.002-10.351-143.962 117.317-166.669 0 0 140.003-24.136 155.11 166.667z" fill="#FCD2B5"/><path class="fil1" d="M1021.88 326.785c2.035 80.203-29.058 103.241-82.207 140.817-53.153 37.592-55.638 77.868-75.477 137.8C776.209 475.5 872.7 329.253 972.934 313.297c0 0 48.347-10.085 48.946 13.487z" fill="#212121"/><path class="fil1" d="M1014.48 326.769c-1.755 80.193 29.387 103.356 82.687 141.124 53.286 37.781 55.91 78.052 75.939 138.073 87.54-129.602-9.457-276.19-109.748-292.511 0-.002-48.382-10.25-48.878 13.313z" fill="#212121"/></g><metadata><rdf:RDF xmlns:rdf="http://www.w3.org/1999/02/22-rdf-syntax-ns#" xmlns:rdfs="http://www.w3.org/2000/01/rdf-schema#" xmlns:dc="http://purl.org/dc/elements/1.1/"><rdf:Description about="https://iconscout.com/legal#licenses" dc:title="yoga" dc:description="yoga" dc:publisher="Iconscout" dc:date="2017-08-10" dc:format="image/svg+xml" dc:language="en"><dc:creator><rdf:Bag><rdf:li>Icon Bunny</rdf:li></rdf:Bag></dc:creator></rdf:Description></rdf:RDF></metadata></svg>