<svg xmlns="http://www.w3.org/2000/svg" viewBox="0 0 2275 933" preserveAspectRatio="xMidYMid" width="2275" height="933"
    xmlns:xlink="http://www.w3.org/1999/xlink"
    style="shape-rendering:auto;display:block;background-position-x:0%;background-position-y:0%;background-size:auto;background-origin:padding-box;background-clip:border-box;background:scroll rgb(255, 255, 255) none  repeat;width:2275px;height:933px;;animation:none">
    <g style="transform:matrix(1, 0, 0, -1, 0, 933);;animation:none">
        <linearGradient y2="0" y1="0" x2="1" x1="0" id="lg-frgnqjushy4">
            <stop offset="0" stop-color="#279b37"></stop>


            <stop offset="1" stop-color="#279b37"></stop>
        </linearGradient>
        <path opacity="0.12000000000000001" fill="url(#lg-frgnqjushy4)"
            d="M 0 0 L 0 786 Q 379.17 798.74 758.33 781.4 T 1516.67 815 T 2275 785.26 L 2275 0 Z"
            style="fill:url('#lg-frgnqjushy4');opacity:0.12;;animation:none"></path>
        <path opacity="0.12000000000000001" fill="url(#lg-frgnqjushy4)"
            d="M 0 0 L 0 878.883 Q 379.17 806.573 758.33 776.832 T 1516.67 877.182 T 2275 827.955 L 2275 0 Z"
            style="fill:url('#lg-frgnqjushy4');opacity:0.12;;animation:none"></path>
        <path opacity="0.12000000000000001" fill="url(#lg-frgnqjushy4)"
            d="M 0 0 L 0 712.205 Q 379.17 824.495 758.33 804.445 T 1516.67 866.095 T 2275 828.86 L 2275 0 Z"
            style="fill:url('#lg-frgnqjushy4');opacity:0.12;;animation:none"></path>
        <path opacity="0.12000000000000001" fill="url(#lg-frgnqjushy4)"
            d="M 0 0 L 0 645.682 Q 379.17 714.977 758.33 693.16 T 1516.67 637.521 T 2275 716.038 L 2275 0 Z"
            style="fill:url('#lg-frgnqjushy4');opacity:0.12;;animation:none"></path>
        <g></g>
    </g><!-- [ldio] generated by https://loading.io -->
</svg>